<?xml version="1.0" encoding="utf-8" ?>
<svg baseProfile="full" height="1450px" version="1.1" viewBox="0,0,1085,1450" width="1085px" xmlns="http://www.w3.org/2000/svg" xmlns:ev="http://www.w3.org/2001/xml-events" xmlns:xlink="http://www.w3.org/1999/xlink"><defs /><path d="M 518 1083 L 517 1084 L 509 1085 L 521 1085 L 522 1084 L 532 1083 Z" fill="#c8c4b4" stroke="none" /><path d="M 480 1081 L 465 1083 L 482 1083 L 483 1082 L 486 1082 L 483 1082 L 482 1081 Z" fill="#c8c4b4" stroke="none" /><path d="M 623 1079 L 622 1080 L 617 1081 L 621 1081 L 622 1080 L 644 1081 L 647 1080 Z" fill="#c8c4b4" stroke="none" /><path d="M 520 1075 L 520 1076 L 518 1078 L 517 1075 L 499 1075 L 493 1076 L 492 1077 L 488 1077 L 487 1075 L 484 1076 L 484 1078 L 496 1078 L 500 1076 L 511 1077 L 500 1079 L 506 1079 L 507 1078 L 516 1077 L 530 1079 L 545 1079 L 546 1081 L 555 1081 L 557 1079 L 594 1080 L 615 1078 L 526 1077 L 528 1076 L 529 1075 L 555 1074 Z" fill="#c8c4b4" stroke="none" /><path d="M 697 1069 L 689 1070 L 686 1071 L 689 1071 L 696 1070 L 705 1069 Z" fill="#c8c4b4" stroke="none" /><path d="M 612 1067 L 611 1068 L 609 1068 L 616 1067 L 618 1070 L 606 1071 L 601 1071 L 592 1070 L 590 1068 L 581 1068 L 580 1069 L 572 1069 L 571 1067 L 569 1067 L 567 1069 L 520 1070 L 569 1069 L 571 1069 L 587 1071 L 571 1072 L 569 1074 L 567 1072 L 565 1072 L 558 1073 L 557 1075 L 563 1075 L 564 1074 L 575 1074 L 588 1072 L 587 1071 L 593 1071 L 590 1072 L 613 1074 L 617 1073 L 621 1073 L 643 1074 L 612 1070 L 630 1069 L 639 1069 L 678 1070 L 679 1072 L 681 1071 L 683 1071 L 678 1070 L 684 1068 L 679 1068 L 678 1069 L 650 1069 L 649 1067 L 647 1066 Z" fill="#c8c4b4" stroke="none" /><path d="M 467 1067 L 488 1067 L 490 1066 L 484 1066 L 483 1067 L 471 1066 L 469 1067 Z" fill="#c8c4b4" stroke="none" /><path d="M 725 1065 L 724 1067 L 711 1067 L 723 1068 L 726 1066 L 728 1065 Z" fill="#c8c4b4" stroke="none" /><path d="M 747 1061 L 746 1062 L 730 1063 L 759 1063 L 760 1062 L 775 1061 Z" fill="#c8c4b4" stroke="none" /><path d="M 692 1061 L 694 1064 L 658 1063 L 657 1064 L 654 1064 L 706 1064 L 707 1063 L 727 1062 L 699 1062 L 698 1061 Z" fill="#c8c4b4" stroke="none" /><path d="M 347 1061 L 349 1061 L 350 1062 L 356 1063 L 374 1064 L 364 1065 L 363 1066 L 357 1066 L 378 1067 L 389 1066 L 391 1068 L 406 1069 L 434 1069 L 435 1070 L 443 1069 L 441 1068 L 428 1067 L 420 1068 L 418 1068 L 417 1066 L 410 1066 L 407 1068 L 394 1066 L 397 1065 L 380 1065 L 378 1063 L 372 1062 L 356 1062 L 355 1061 Z" fill="#c8c4b4" stroke="none" /><path d="M 335 1058 L 339 1058 L 340 1059 L 349 1059 L 340 1057 Z" fill="#c8c4b4" stroke="none" /><path d="M 275 1059 L 273 1058 L 267 1059 L 270 1060 L 331 1058 L 301 1057 Z" fill="#c8c4b4" stroke="none" /><path d="M 584 1056 L 583 1057 L 569 1057 L 557 1058 L 547 1060 L 542 1059 L 529 1060 L 540 1063 L 535 1063 L 517 1061 L 513 1064 L 479 1064 L 468 1064 L 421 1063 L 420 1062 L 398 1062 L 423 1064 L 429 1064 L 439 1063 L 442 1064 L 446 1070 L 464 1070 L 466 1069 L 468 1071 L 484 1072 L 491 1071 L 491 1073 L 494 1073 L 495 1072 L 504 1071 L 517 1071 L 517 1069 L 513 1070 L 511 1070 L 510 1069 L 508 1069 L 472 1069 L 467 1070 L 465 1068 L 450 1068 L 447 1066 L 444 1063 L 498 1064 L 500 1066 L 502 1066 L 503 1065 L 505 1065 L 512 1065 L 515 1065 L 523 1066 L 545 1064 L 550 1065 L 574 1063 L 580 1063 L 589 1064 L 592 1062 L 595 1061 L 606 1060 L 620 1059 L 632 1059 L 645 1056 L 642 1056 L 601 1057 L 597 1059 L 585 1060 L 558 1061 L 558 1058 L 576 1057 L 596 1056 Z" fill="#c8c4b4" stroke="none" /><path d="M 369 1055 L 398 1056 L 399 1057 L 410 1056 L 400 1056 L 399 1055 Z" fill="#c8c4b4" stroke="none" /><path d="M 657 1056 L 647 1057 L 650 1058 L 654 1058 L 660 1058 L 662 1058 L 698 1058 L 699 1056 L 735 1055 L 741 1056 L 743 1056 L 744 1055 L 746 1055 L 734 1054 L 729 1055 L 727 1055 L 721 1054 L 693 1056 L 681 1054 L 679 1056 L 677 1056 L 673 1055 L 672 1056 L 669 1056 L 667 1054 Z" fill="#c8c4b4" stroke="none" /><path d="M 263 1053 L 262 1054 L 232 1055 L 262 1055 L 263 1054 L 277 1053 Z" fill="#c8c4b4" stroke="none" /><path d="M 839 1050 L 838 1051 L 829 1052 L 812 1051 L 801 1051 L 798 1053 L 780 1053 L 802 1053 L 803 1052 L 838 1052 L 844 1050 Z" fill="#c8c4b4" stroke="none" /><path d="M 765 1047 L 764 1048 L 762 1049 L 766 1049 L 767 1048 L 783 1048 Z" fill="#c8c4b4" stroke="none" /><path d="M 360 1040 L 359 1041 L 354 1042 L 358 1042 L 371 1040 Z" fill="#c8c4b4" stroke="none" /><path d="M 474 1037 L 468 1038 L 455 1039 L 384 1039 L 396 1039 L 435 1039 L 452 1042 L 450 1043 L 444 1043 L 429 1042 L 420 1044 L 387 1043 L 377 1045 L 362 1045 L 357 1047 L 331 1048 L 300 1049 L 337 1049 L 357 1050 L 364 1051 L 366 1053 L 361 1054 L 326 1054 L 321 1054 L 321 1052 L 315 1052 L 314 1054 L 295 1053 L 290 1054 L 281 1054 L 302 1055 L 313 1055 L 315 1053 L 317 1053 L 320 1055 L 326 1054 L 329 1054 L 333 1055 L 366 1055 L 367 1053 L 377 1052 L 410 1053 L 415 1055 L 416 1057 L 424 1057 L 423 1055 L 418 1057 L 416 1056 L 415 1054 L 414 1051 L 419 1053 L 424 1053 L 429 1051 L 431 1053 L 434 1053 L 442 1051 L 471 1051 L 472 1055 L 461 1056 L 441 1055 L 435 1056 L 432 1056 L 431 1055 L 426 1057 L 434 1056 L 440 1056 L 443 1059 L 463 1058 L 465 1058 L 486 1059 L 485 1061 L 509 1061 L 511 1058 L 513 1058 L 514 1059 L 520 1059 L 528 1057 L 554 1057 L 555 1056 L 565 1056 L 542 1056 L 541 1057 L 517 1056 L 493 1058 L 491 1059 L 490 1057 L 482 1057 L 470 1058 L 466 1056 L 485 1054 L 505 1055 L 507 1055 L 520 1053 L 543 1054 L 544 1052 L 550 1052 L 555 1050 L 560 1049 L 569 1048 L 572 1051 L 567 1051 L 565 1052 L 569 1052 L 570 1051 L 610 1051 L 610 1053 L 613 1051 L 636 1052 L 634 1054 L 632 1054 L 641 1054 L 638 1053 L 636 1052 L 695 1052 L 702 1052 L 728 1050 L 731 1052 L 758 1052 L 767 1054 L 771 1054 L 778 1052 L 773 1053 L 767 1051 L 764 1052 L 762 1052 L 758 1050 L 760 1047 L 754 1048 L 748 1048 L 747 1047 L 743 1047 L 714 1047 L 694 1049 L 684 1048 L 679 1049 L 677 1049 L 669 1049 L 667 1049 L 662 1048 L 639 1048 L 650 1047 L 651 1046 L 657 1046 L 640 1046 L 632 1048 L 628 1048 L 626 1046 L 613 1046 L 615 1044 L 618 1045 L 620 1044 L 616 1043 L 618 1042 L 619 1041 L 621 1041 L 622 1042 L 623 1044 L 628 1044 L 629 1043 L 636 1044 L 644 1042 L 647 1042 L 648 1044 L 651 1044 L 657 1043 L 658 1044 L 665 1045 L 686 1044 L 695 1044 L 703 1044 L 705 1044 L 706 1045 L 708 1045 L 721 1043 L 742 1042 L 746 1042 L 717 1043 L 710 1043 L 683 1041 L 678 1041 L 663 1042 L 635 1042 L 633 1042 L 589 1042 L 591 1042 L 592 1041 L 598 1043 L 596 1045 L 592 1045 L 581 1043 L 583 1041 L 586 1040 L 583 1040 L 582 1041 L 578 1042 L 573 1042 L 563 1041 L 562 1042 L 553 1042 L 549 1040 L 544 1040 L 535 1040 L 544 1041 L 545 1043 L 543 1044 L 542 1042 L 532 1042 L 531 1043 L 522 1042 L 528 1041 L 520 1040 L 524 1039 L 508 1040 L 494 1039 L 477 1040 L 476 1042 L 474 1042 L 461 1041 L 463 1042 L 465 1044 L 470 1044 L 499 1043 L 500 1042 L 506 1041 L 516 1040 L 517 1042 L 520 1043 L 507 1044 L 512 1045 L 513 1044 L 524 1044 L 528 1046 L 504 1046 L 482 1048 L 477 1048 L 476 1047 L 472 1047 L 471 1048 L 470 1049 L 468 1050 L 465 1047 L 458 1047 L 451 1049 L 448 1049 L 446 1047 L 449 1045 L 451 1044 L 462 1044 L 457 1043 L 456 1042 L 456 1039 L 465 1039 L 469 1037 L 476 1036 Z" fill="#c8c4b4" stroke="none" /><path d="M 502 1050 L 505 1050 L 506 1051 L 508 1052 L 505 1053 L 503 1054 L 490 1053 L 489 1054 L 475 1053 L 477 1051 Z" fill="none" stroke="none" /><path d="M 575 1046 L 593 1046 L 611 1048 L 613 1047 L 615 1049 L 596 1050 L 595 1049 L 577 1050 L 575 1050 L 573 1048 Z" fill="none" stroke="none" /><path d="M 379 1046 L 392 1046 L 394 1048 L 388 1050 L 375 1050 L 368 1048 Z" fill="none" stroke="none" /><path d="M 549 1045 L 552 1044 L 553 1045 L 555 1046 L 552 1047 L 560 1048 L 553 1050 L 545 1050 L 541 1051 L 538 1053 L 508 1052 L 538 1050 L 484 1051 L 482 1049 L 497 1047 L 529 1046 L 542 1047 L 546 1047 L 547 1046 Z" fill="none" stroke="none" /><path d="M 431 1043 L 433 1043 L 445 1047 L 443 1048 L 440 1048 L 439 1047 L 436 1047 L 432 1049 L 428 1049 L 427 1048 L 423 1048 L 421 1050 L 418 1051 L 416 1051 L 414 1049 L 419 1047 L 407 1047 L 398 1049 L 395 1046 L 401 1045 L 422 1044 Z" fill="none" stroke="none" /><path d="M 600 1042 L 607 1043 L 612 1042 L 614 1044 L 612 1046 L 610 1047 L 608 1047 L 606 1045 L 598 1044 Z" fill="none" stroke="none" /><path d="M 609 1034 L 608 1035 L 601 1035 L 604 1035 L 647 1035 Z" fill="#c8c4b4" stroke="none" /><path d="M 503 1034 L 506 1035 L 520 1034 L 518 1034 L 517 1033 L 515 1033 Z" fill="#c8c4b4" stroke="none" /><path d="M 476 1031 L 475 1032 L 456 1033 L 445 1032 L 442 1033 L 441 1032 L 439 1033 L 446 1033 L 447 1034 L 455 1034 L 474 1033 L 475 1032 L 481 1032 Z" fill="#c8c4b4" stroke="none" /><path d="M 554 989 L 554 996 L 557 991 L 557 993 L 557 990 L 556 988 Z" fill="#c8c4b4" stroke="none" /><path d="M 618 981 L 613 986 L 612 986 L 609 990 L 611 990 L 613 989 L 616 986 L 613 986 L 615 984 L 616 984 L 617 983 Z" fill="#c8c4b4" stroke="none" /><path d="M 586 977 L 583 980 L 582 980 L 581 981 L 581 982 L 578 983 L 577 988 L 573 992 L 572 995 L 569 998 L 568 1000 L 568 1002 L 569 999 L 573 995 L 579 985 L 582 981 Z" fill="#c8c4b4" stroke="none" /><path d="M 629 960 L 623 966 L 620 968 L 617 969 L 613 973 L 609 976 L 604 979 L 598 982 L 593 983 L 587 986 L 585 988 L 587 987 L 591 985 L 593 985 L 603 982 L 605 981 L 610 976 L 615 973 L 622 967 Z" fill="#c8c4b4" stroke="none" /><path d="M 585 955 L 581 962 L 580 966 L 579 968 L 578 970 L 577 971 L 576 971 L 575 974 L 576 972 L 579 969 L 581 965 L 585 956 L 587 954 L 588 952 Z" fill="#c8c4b4" stroke="none" /><path d="M 360 938 L 361 940 L 364 943 L 366 946 L 367 951 L 369 953 L 369 956 L 370 959 L 373 963 L 375 966 L 378 970 L 379 971 L 382 972 L 384 974 L 384 975 L 385 976 L 387 977 L 390 977 L 393 979 L 396 980 L 403 980 L 405 979 L 402 979 L 401 978 L 397 977 L 393 977 L 390 976 L 388 975 L 385 973 L 382 971 L 375 964 L 374 961 L 373 956 L 375 958 L 377 962 L 381 966 L 383 968 L 388 972 L 390 973 L 393 973 L 396 972 L 400 973 L 403 974 L 405 976 L 407 978 L 411 979 L 414 980 L 421 980 L 430 983 L 432 984 L 434 985 L 432 984 L 431 983 L 429 983 L 427 981 L 425 980 L 414 979 L 408 976 L 404 974 L 407 973 L 404 972 L 400 970 L 390 965 L 385 961 L 380 959 L 377 957 L 374 955 L 369 950 L 367 945 L 365 942 L 361 937 Z" fill="#c8c4b4" stroke="none" /><path d="M 377 961 L 380 961 L 382 961 L 388 966 L 389 966 L 388 969 L 385 967 L 379 963 Z" fill="none" stroke="none" /><path d="M 249 933 L 247 934 L 239 939 L 234 943 L 228 947 L 231 946 L 235 942 L 239 941 L 247 935 L 251 933 Z" fill="#c8c4b4" stroke="none" /><path d="M 805 931 L 807 934 L 808 934 L 812 938 L 821 944 L 824 945 L 823 943 L 820 942 L 811 936 L 807 932 Z" fill="#c8c4b4" stroke="none" /><path d="M 707 931 L 707 933 L 708 938 L 707 943 L 706 947 L 705 949 L 703 952 L 700 955 L 698 954 L 691 962 L 688 964 L 686 965 L 681 966 L 675 972 L 671 975 L 668 977 L 662 978 L 658 983 L 660 982 L 661 980 L 663 979 L 668 978 L 673 980 L 677 979 L 680 978 L 682 977 L 685 975 L 689 971 L 693 969 L 695 967 L 695 965 L 697 963 L 694 963 L 698 961 L 701 956 L 703 954 L 704 957 L 702 960 L 699 963 L 696 970 L 694 972 L 691 974 L 693 974 L 696 972 L 700 968 L 701 966 L 702 962 L 704 960 L 705 958 L 705 951 L 708 947 L 709 943 Z" fill="#c8c4b4" stroke="none" /><path d="M 686 972 L 682 976 L 680 977 L 677 978 L 673 979 L 668 978 L 670 977 L 671 976 L 673 976 L 675 974 L 677 973 L 679 974 L 682 973 Z" fill="none" stroke="none" /><path d="M 690 964 L 693 965 L 691 967 L 686 969 L 683 972 L 682 970 L 685 967 Z" fill="none" stroke="none" /><path d="M 771 916 L 772 918 L 774 919 L 778 921 L 783 923 L 788 925 L 790 925 L 792 926 L 791 924 L 786 923 L 781 921 L 776 918 L 774 918 Z" fill="#c8c4b4" stroke="none" /><path d="M 761 911 L 764 913 L 767 915 L 769 916 L 767 913 L 764 912 L 762 910 Z" fill="#c8c4b4" stroke="none" /><path d="M 416 909 L 417 911 L 418 914 L 419 915 L 421 921 L 424 926 L 430 934 L 430 935 L 432 937 L 431 935 L 427 930 L 424 925 L 420 918 L 420 916 L 417 911 Z" fill="#c8c4b4" stroke="none" /><path d="M 457 903 L 457 906 L 459 910 L 459 913 L 460 916 L 461 919 L 464 925 L 464 922 L 461 917 L 460 911 L 458 908 L 458 906 L 457 905 Z" fill="#c8c4b4" stroke="none" /><path d="M 765 900 L 767 902 L 768 902 L 775 909 L 778 909 L 780 910 L 782 911 L 785 914 L 788 916 L 790 917 L 792 917 L 794 918 L 802 923 L 805 925 L 808 927 L 811 930 L 814 932 L 815 935 L 817 935 L 819 938 L 821 939 L 823 938 L 825 940 L 826 940 L 828 942 L 828 947 L 830 946 L 833 948 L 841 954 L 844 956 L 846 956 L 851 961 L 855 963 L 859 967 L 868 973 L 870 974 L 872 974 L 871 972 L 874 972 L 874 974 L 879 979 L 882 981 L 887 983 L 892 986 L 895 988 L 897 990 L 897 992 L 900 991 L 906 994 L 909 996 L 911 998 L 909 995 L 906 993 L 903 992 L 903 988 L 906 990 L 910 993 L 912 993 L 913 995 L 916 997 L 923 1000 L 925 1002 L 926 1006 L 928 1007 L 930 1007 L 934 1010 L 935 1007 L 939 1011 L 941 1011 L 944 1012 L 940 1009 L 941 1007 L 936 1006 L 930 1003 L 928 1001 L 929 1000 L 925 997 L 923 996 L 922 997 L 920 996 L 918 994 L 919 993 L 916 990 L 913 990 L 911 988 L 910 988 L 909 985 L 906 982 L 901 980 L 897 978 L 892 975 L 891 972 L 888 972 L 884 967 L 883 966 L 882 966 L 880 964 L 878 963 L 875 963 L 873 962 L 870 959 L 867 957 L 865 957 L 858 953 L 852 947 L 849 947 L 847 946 L 844 944 L 840 941 L 830 932 L 827 930 L 824 928 L 821 927 L 818 925 L 813 920 L 809 920 L 804 916 L 798 913 L 791 910 L 788 909 L 785 908 L 781 908 L 777 906 L 767 901 Z" fill="#c8c4b4" stroke="none" /><path d="M 882 979 L 884 978 L 886 979 L 898 985 L 900 987 L 896 988 L 894 987 L 884 981 Z" fill="none" stroke="none" /><path d="M 877 976 L 879 975 L 881 976 L 883 978 L 881 979 L 879 978 Z" fill="none" stroke="none" /><path d="M 856 958 L 859 957 L 865 960 L 880 969 L 881 974 L 879 973 L 877 971 L 875 970 L 872 970 L 869 969 L 867 968 L 862 964 Z" fill="none" stroke="none" /><path d="M 842 949 L 845 948 L 847 949 L 852 952 L 856 956 L 853 957 L 849 953 L 847 953 Z" fill="none" stroke="none" /><path d="M 831 938 L 837 943 L 837 947 L 835 945 L 834 945 L 832 943 L 830 940 Z" fill="none" stroke="none" /><path d="M 304 892 L 302 894 L 300 895 L 298 895 L 296 896 L 294 897 L 292 899 L 290 900 L 288 901 L 278 904 L 272 907 L 270 910 L 267 911 L 265 914 L 263 912 L 261 915 L 257 916 L 257 918 L 253 920 L 250 923 L 248 922 L 245 925 L 243 926 L 239 927 L 240 929 L 238 931 L 233 931 L 229 933 L 219 939 L 217 938 L 215 942 L 213 943 L 211 943 L 203 948 L 194 956 L 190 957 L 189 955 L 190 953 L 193 952 L 197 949 L 198 949 L 201 947 L 199 948 L 198 948 L 196 950 L 194 950 L 192 951 L 189 953 L 186 955 L 187 957 L 182 958 L 180 960 L 178 962 L 176 962 L 174 963 L 170 966 L 169 969 L 168 971 L 163 973 L 165 969 L 161 974 L 157 976 L 155 978 L 157 977 L 158 977 L 161 974 L 164 975 L 158 980 L 157 981 L 155 982 L 152 983 L 149 986 L 148 985 L 145 989 L 142 991 L 135 995 L 135 997 L 137 997 L 141 994 L 145 994 L 147 990 L 150 987 L 153 988 L 160 982 L 162 981 L 165 981 L 169 977 L 174 975 L 177 972 L 181 969 L 183 968 L 186 969 L 193 966 L 196 966 L 198 966 L 200 965 L 202 964 L 203 962 L 205 958 L 208 957 L 215 952 L 216 950 L 218 949 L 220 949 L 228 944 L 231 942 L 238 936 L 240 935 L 244 934 L 249 931 L 252 929 L 255 925 L 257 924 L 262 925 L 261 927 L 264 925 L 263 924 L 266 921 L 269 920 L 271 919 L 272 917 L 274 915 L 279 913 L 281 912 L 282 910 L 284 908 L 285 910 L 287 909 L 290 906 L 284 908 L 289 903 L 296 900 L 304 895 L 305 894 L 306 892 Z" fill="#c8c4b4" stroke="none" /><path d="M 176 963 L 177 965 L 173 969 L 172 967 Z" fill="none" stroke="none" /><path d="M 199 961 L 200 963 L 198 965 L 196 966 L 195 964 L 197 962 Z" fill="none" stroke="none" /><path d="M 207 950 L 209 952 L 207 954 L 205 954 L 202 957 L 197 958 L 198 956 L 201 953 L 203 952 Z" fill="none" stroke="none" /><path d="M 222 942 L 223 944 L 221 946 L 218 944 L 220 943 Z" fill="none" stroke="none" /><path d="M 380 882 L 380 884 L 379 885 L 379 890 L 380 896 L 382 898 L 382 896 L 381 895 L 380 889 Z" fill="#c8c4b4" stroke="none" /><path d="M 384 874 L 385 879 L 386 883 L 388 887 L 387 892 L 388 896 L 388 894 L 389 893 L 389 889 L 388 884 L 386 879 L 386 873 Z" fill="#c8c4b4" stroke="none" /><path d="M 406 886 L 405 884 L 405 892 L 407 898 L 407 903 L 408 901 L 409 903 L 410 904 L 410 907 L 411 910 L 415 919 L 418 925 L 422 932 L 425 935 L 427 938 L 427 939 L 428 940 L 429 940 L 432 942 L 435 945 L 436 947 L 436 949 L 437 950 L 438 952 L 437 950 L 436 948 L 436 946 L 435 944 L 422 931 L 420 927 L 415 917 L 411 907 L 410 904 L 411 901 L 413 902 L 414 904 L 414 901 L 411 897 L 410 895 L 409 892 L 408 882 L 408 872 Z" fill="#c8c4b4" stroke="none" /><path d="M 670 860 L 671 862 L 671 867 L 672 868 L 673 874 L 672 888 L 673 889 L 673 892 L 673 888 L 674 887 L 674 876 L 673 870 L 672 866 L 671 865 L 671 862 Z" fill="#c8c4b4" stroke="none" /><path d="M 389 847 L 387 851 L 387 853 L 385 857 L 384 863 L 384 871 L 385 865 L 386 864 L 386 858 L 388 854 L 388 851 L 389 850 Z" fill="#c8c4b4" stroke="none" /><path d="M 498 846 L 494 851 L 493 854 L 493 858 L 495 857 L 496 852 L 498 849 Z" fill="#c8c4b4" stroke="none" /><path d="M 561 842 L 562 848 L 563 854 L 563 871 L 562 873 L 563 871 L 564 870 L 564 858 L 563 851 L 562 850 Z" fill="#c8c4b4" stroke="none" /><path d="M 783 840 L 785 841 L 790 842 L 791 845 L 795 847 L 799 847 L 809 852 L 812 853 L 815 854 L 822 854 L 824 856 L 826 855 L 829 857 L 830 857 L 834 860 L 839 862 L 842 863 L 847 864 L 853 864 L 857 866 L 863 866 L 866 868 L 869 869 L 871 868 L 875 869 L 878 870 L 881 871 L 884 873 L 883 871 L 881 871 L 878 869 L 873 868 L 865 865 L 863 863 L 856 863 L 854 862 L 851 859 L 848 857 L 843 857 L 838 855 L 834 852 L 830 850 L 826 849 L 821 849 L 818 847 L 814 846 L 809 846 L 805 845 L 802 843 L 798 842 L 792 842 L 788 841 L 785 840 Z" fill="#c8c4b4" stroke="none" /><path d="M 291 831 L 287 833 L 281 834 L 277 835 L 275 837 L 272 838 L 266 839 L 264 841 L 261 842 L 255 842 L 253 843 L 251 845 L 247 846 L 239 848 L 231 851 L 229 853 L 224 855 L 221 855 L 219 856 L 215 859 L 210 861 L 205 862 L 201 865 L 204 864 L 207 862 L 213 862 L 216 860 L 220 860 L 223 859 L 233 854 L 236 854 L 238 853 L 239 852 L 239 851 L 241 850 L 242 852 L 244 852 L 247 850 L 251 850 L 253 848 L 260 847 L 263 845 L 266 845 L 271 841 L 273 840 L 275 839 L 278 839 L 281 837 L 285 836 Z" fill="#c8c4b4" stroke="none" /><path d="M 681 814 L 681 817 L 682 819 L 680 819 L 680 822 L 681 823 L 682 826 L 682 824 L 681 823 L 682 819 L 684 821 L 687 826 L 690 831 L 690 829 L 688 827 L 688 825 L 687 823 L 684 818 L 682 816 Z" fill="#c8c4b4" stroke="none" /><path d="M 442 809 L 440 811 L 438 814 L 436 817 L 435 820 L 433 823 L 428 829 L 426 833 L 424 836 L 426 834 L 428 831 L 430 827 L 435 821 L 437 818 L 438 815 L 440 812 Z" fill="#c8c4b4" stroke="none" /><path d="M 496 808 L 495 814 L 492 819 L 492 822 L 490 824 L 490 821 L 487 824 L 487 825 L 484 828 L 482 831 L 480 834 L 477 839 L 476 844 L 477 842 L 478 839 L 481 834 L 486 826 L 489 823 L 490 825 L 494 822 L 494 817 L 496 813 Z" fill="#c8c4b4" stroke="none" /><path d="M 461 780 L 460 783 L 457 786 L 454 791 L 451 796 L 449 801 L 447 803 L 447 804 L 446 806 L 448 807 L 450 805 L 451 802 L 452 800 L 450 803 L 449 801 L 450 799 L 456 789 L 460 786 L 461 784 L 461 782 L 463 779 Z" fill="#c8c4b4" stroke="none" /><path d="M 247 779 L 243 781 L 235 781 L 238 782 L 242 781 L 245 783 L 254 782 L 261 782 L 264 782 L 265 783 L 268 783 L 269 782 L 271 782 L 274 782 L 268 782 L 257 782 L 255 780 L 252 780 L 251 781 L 249 781 Z" fill="#c8c4b4" stroke="none" /><path d="M 274 772 L 284 770 L 281 769 L 277 770 L 276 769 Z" fill="#c8c4b4" stroke="none" /><path d="M 171 768 L 168 770 L 168 768 L 154 768 L 150 770 L 146 768 L 144 768 L 141 770 L 138 769 L 138 771 L 142 770 L 144 771 L 144 774 L 133 774 L 130 771 L 127 771 L 126 774 L 121 772 L 121 775 L 119 774 L 116 771 L 114 773 L 111 773 L 107 774 L 107 773 L 104 772 L 101 775 L 97 773 L 94 775 L 90 773 L 87 775 L 85 773 L 83 773 L 79 774 L 73 775 L 69 774 L 67 776 L 55 776 L 54 777 L 49 778 L 56 778 L 57 777 L 68 776 L 70 776 L 71 778 L 73 778 L 76 776 L 82 776 L 86 777 L 88 777 L 91 775 L 98 775 L 106 775 L 107 777 L 114 778 L 117 778 L 119 776 L 125 778 L 134 778 L 147 781 L 148 779 L 149 779 L 151 777 L 154 776 L 158 777 L 161 776 L 165 777 L 164 780 L 155 781 L 158 780 L 161 780 L 168 781 L 166 779 L 167 775 L 173 777 L 172 781 L 174 781 L 173 778 L 175 776 L 177 776 L 179 778 L 182 780 L 182 775 L 184 775 L 186 777 L 186 779 L 184 781 L 210 780 L 207 779 L 195 779 L 196 776 L 204 776 L 205 775 L 213 776 L 217 776 L 220 774 L 224 777 L 226 777 L 228 775 L 230 774 L 232 776 L 234 777 L 235 775 L 237 773 L 239 773 L 242 776 L 247 772 L 248 776 L 251 775 L 254 772 L 257 773 L 258 776 L 261 773 L 264 774 L 264 776 L 266 776 L 267 774 L 269 774 L 271 775 L 269 772 L 269 769 L 267 768 L 262 768 L 260 768 L 258 770 L 256 770 L 250 770 L 240 769 L 237 767 L 235 767 L 233 769 L 231 769 L 231 767 L 227 768 L 226 767 L 218 769 L 216 769 L 213 767 L 211 767 L 204 768 L 203 767 L 196 767 L 184 770 L 182 767 L 176 768 L 174 768 Z" fill="#c8c4b4" stroke="none" /><path d="M 189 775 L 194 776 L 193 780 L 187 779 L 187 777 Z" fill="none" stroke="none" /><path d="M 148 770 L 154 771 L 158 770 L 160 772 L 158 774 L 156 774 L 153 773 L 146 772 Z" fill="none" stroke="none" /><path d="M 860 765 L 855 767 L 850 766 L 844 768 L 843 766 L 841 767 L 841 768 L 839 770 L 837 768 L 824 769 L 818 769 L 806 768 L 798 770 L 795 769 L 794 770 L 791 769 L 789 771 L 799 770 L 804 770 L 806 770 L 808 772 L 810 772 L 817 771 L 818 772 L 825 771 L 828 772 L 836 773 L 834 775 L 825 776 L 804 776 L 813 776 L 829 776 L 831 776 L 833 778 L 837 778 L 840 776 L 863 778 L 873 777 L 879 775 L 882 776 L 884 775 L 887 775 L 889 777 L 891 775 L 897 777 L 902 777 L 904 777 L 910 776 L 913 775 L 916 773 L 921 774 L 928 776 L 930 773 L 932 774 L 935 776 L 942 775 L 945 773 L 947 773 L 948 775 L 950 775 L 963 773 L 969 774 L 974 772 L 979 772 L 981 770 L 983 770 L 986 772 L 988 772 L 992 770 L 994 772 L 996 772 L 998 770 L 1001 770 L 1004 772 L 1006 770 L 1010 771 L 1013 769 L 1021 768 L 1015 769 L 1009 769 L 1007 769 L 1002 767 L 1000 767 L 994 767 L 981 767 L 978 770 L 976 767 L 974 767 L 973 768 L 969 767 L 967 767 L 963 768 L 962 766 L 951 767 L 947 766 L 945 768 L 943 766 L 927 766 L 921 767 L 920 766 L 915 766 L 905 766 L 901 766 L 886 767 L 870 765 L 868 765 L 864 766 L 863 765 Z" fill="#c8c4b4" stroke="none" /><path d="M 838 771 L 841 772 L 842 771 L 844 773 L 838 775 L 836 773 Z" fill="none" stroke="none" /><path d="M 860 770 L 879 769 L 881 771 L 874 772 L 870 774 L 859 771 Z" fill="none" stroke="none" /><path d="M 447 763 L 446 764 L 446 769 L 444 775 L 446 774 L 447 769 L 447 764 L 448 763 L 448 759 Z" fill="#c8c4b4" stroke="none" /><path d="M 673 757 L 671 760 L 670 763 L 670 766 L 667 771 L 668 775 L 667 782 L 668 791 L 669 795 L 670 798 L 677 811 L 679 814 L 679 811 L 676 807 L 674 803 L 672 798 L 671 794 L 669 785 L 668 780 L 669 775 L 668 772 L 669 769 L 670 765 L 671 761 L 672 759 Z" fill="#c8c4b4" stroke="none" /><path d="M 415 747 L 416 750 L 416 762 L 415 765 L 414 768 L 412 772 L 407 780 L 406 782 L 406 786 L 408 789 L 409 792 L 409 788 L 410 787 L 410 780 L 411 777 L 414 770 L 417 765 L 418 769 L 416 771 L 415 778 L 414 781 L 413 779 L 414 781 L 414 784 L 413 788 L 411 789 L 412 796 L 413 798 L 415 801 L 415 799 L 414 798 L 414 789 L 415 786 L 416 783 L 418 780 L 419 777 L 420 774 L 420 764 L 419 755 L 416 747 L 415 745 Z" fill="#c8c4b4" stroke="none" /><path d="M 512 727 L 511 744 L 510 756 L 509 764 L 506 779 L 505 780 L 505 783 L 505 781 L 506 780 L 507 776 L 508 772 L 508 767 L 510 762 L 511 751 L 511 739 L 512 738 Z" fill="#c8c4b4" stroke="none" /><path d="M 463 726 L 465 729 L 465 731 L 469 737 L 468 734 L 467 731 L 466 729 L 465 727 Z" fill="#c8c4b4" stroke="none" /><path d="M 508 716 L 508 730 L 507 731 L 507 750 L 506 760 L 505 765 L 504 770 L 500 780 L 499 784 L 499 791 L 497 800 L 495 805 L 491 808 L 488 815 L 485 818 L 484 820 L 485 821 L 484 823 L 482 826 L 480 828 L 478 831 L 477 833 L 479 832 L 479 831 L 483 826 L 486 821 L 487 816 L 488 814 L 489 812 L 491 809 L 497 804 L 498 802 L 498 798 L 499 797 L 499 793 L 502 784 L 505 770 L 506 765 L 507 759 L 508 747 Z" fill="#c8c4b4" stroke="none" /><path d="M 564 708 L 565 710 L 567 714 L 571 728 L 572 729 L 573 731 L 572 727 L 571 724 L 569 721 L 569 718 L 567 713 L 566 711 Z" fill="#c8c4b4" stroke="none" /><path d="M 887 688 L 884 689 L 878 692 L 872 694 L 868 695 L 861 695 L 844 699 L 841 701 L 838 700 L 837 702 L 830 702 L 825 705 L 820 706 L 812 707 L 809 708 L 803 711 L 797 711 L 793 713 L 787 717 L 786 716 L 783 718 L 785 718 L 788 716 L 793 715 L 794 716 L 800 714 L 804 715 L 812 713 L 817 710 L 822 708 L 830 708 L 834 707 L 841 704 L 846 704 L 851 703 L 863 699 L 865 698 L 867 696 L 869 695 L 873 695 L 881 691 L 887 690 L 892 688 L 889 689 Z" fill="#c8c4b4" stroke="none" /><path d="M 542 685 L 542 690 L 543 695 L 544 700 L 546 705 L 546 703 L 545 702 L 544 698 L 544 693 L 543 692 L 543 687 Z" fill="#c8c4b4" stroke="none" /><path d="M 186 678 L 188 679 L 190 680 L 195 681 L 199 681 L 204 682 L 206 684 L 208 685 L 214 685 L 217 687 L 221 688 L 225 689 L 229 688 L 233 691 L 235 692 L 239 693 L 246 694 L 246 696 L 248 696 L 249 697 L 252 697 L 255 699 L 258 699 L 261 701 L 264 702 L 272 704 L 276 705 L 278 704 L 283 706 L 287 706 L 288 704 L 292 705 L 293 706 L 295 705 L 292 705 L 290 703 L 285 704 L 283 703 L 280 700 L 278 699 L 273 697 L 267 697 L 264 696 L 262 694 L 267 693 L 265 692 L 263 692 L 262 694 L 260 694 L 255 691 L 251 690 L 245 690 L 238 688 L 235 686 L 230 686 L 227 684 L 220 685 L 215 683 L 211 684 L 205 681 L 200 680 L 195 679 L 190 678 L 188 679 Z" fill="#c8c4b4" stroke="none" /><path d="M 633 668 L 635 674 L 635 683 L 633 688 L 633 693 L 632 698 L 630 700 L 630 703 L 631 700 L 633 698 L 634 696 L 635 692 L 635 686 L 637 678 L 639 680 L 640 688 L 640 697 L 639 699 L 635 703 L 633 703 L 631 705 L 629 707 L 628 710 L 626 715 L 628 715 L 631 711 L 633 710 L 635 710 L 637 709 L 639 707 L 641 704 L 643 699 L 643 697 L 644 695 L 643 686 L 642 680 L 641 678 L 637 674 L 636 672 L 634 665 L 634 661 Z" fill="#c8c4b4" stroke="none" /><path d="M 634 704 L 637 705 L 634 708 L 631 706 L 634 705 Z" fill="none" stroke="none" /><path d="M 538 653 L 539 655 L 539 665 L 542 671 L 541 665 L 540 659 L 539 658 Z" fill="#c8c4b4" stroke="none" /><path d="M 514 650 L 513 652 L 512 657 L 511 667 L 510 676 L 510 690 L 512 701 L 515 710 L 516 719 L 516 727 L 515 754 L 514 764 L 513 769 L 510 778 L 510 783 L 509 784 L 509 788 L 509 785 L 510 784 L 510 780 L 515 764 L 516 759 L 516 745 L 518 733 L 519 721 L 519 718 L 517 711 L 517 709 L 515 708 L 514 704 L 512 696 L 512 678 L 513 672 L 515 670 L 514 666 L 512 666 L 512 662 L 513 653 L 514 652 Z" fill="#c8c4b4" stroke="none" /><path d="M 449 639 L 451 644 L 451 652 L 450 656 L 449 660 L 447 663 L 447 673 L 448 674 L 448 679 L 451 679 L 454 681 L 457 684 L 459 684 L 458 682 L 454 679 L 452 674 L 450 666 L 449 664 L 451 661 L 452 657 L 452 643 L 451 640 L 450 638 Z" fill="#c8c4b4" stroke="none" /><path d="M 836 622 L 834 623 L 828 626 L 822 630 L 820 632 L 823 633 L 824 631 L 825 633 L 828 630 L 827 629 L 830 626 L 834 627 L 834 625 Z" fill="#c8c4b4" stroke="none" /><path d="M 537 595 L 535 597 L 535 598 L 531 602 L 525 611 L 521 618 L 509 642 L 507 647 L 506 651 L 505 655 L 504 660 L 502 671 L 501 677 L 500 683 L 500 745 L 499 753 L 497 757 L 496 765 L 495 769 L 490 784 L 488 786 L 487 782 L 488 758 L 487 753 L 486 750 L 483 743 L 482 741 L 481 739 L 477 734 L 475 729 L 473 727 L 473 726 L 472 725 L 463 716 L 461 714 L 458 714 L 455 712 L 450 708 L 445 703 L 444 703 L 441 701 L 443 702 L 450 709 L 464 721 L 465 721 L 470 726 L 474 731 L 477 735 L 479 738 L 480 740 L 482 745 L 482 748 L 484 751 L 485 754 L 486 758 L 487 766 L 487 770 L 486 789 L 483 796 L 478 805 L 478 807 L 475 812 L 475 814 L 476 812 L 480 807 L 485 798 L 488 792 L 492 783 L 494 778 L 495 772 L 498 767 L 499 778 L 499 775 L 500 774 L 501 767 L 500 763 L 501 747 L 502 736 L 504 735 L 505 710 L 505 707 L 504 683 L 505 673 L 506 666 L 509 661 L 510 657 L 511 650 L 513 644 L 516 635 L 517 633 L 518 631 L 521 627 L 523 623 L 524 619 L 525 617 L 526 615 L 530 608 L 532 605 L 537 599 Z" fill="#c8c4b4" stroke="none" /><path d="M 568 601 L 566 604 L 566 607 L 568 615 L 567 618 L 565 617 L 565 619 L 564 620 L 564 630 L 565 635 L 566 638 L 568 640 L 575 646 L 575 643 L 574 638 L 576 636 L 576 626 L 575 623 L 572 617 L 572 610 L 570 608 L 569 604 L 569 593 Z" fill="#c8c4b4" stroke="none" /><path d="M 567 624 L 568 626 L 569 627 L 571 634 L 569 635 L 567 633 L 566 631 Z" fill="none" stroke="none" /><path d="M 569 615 L 571 617 L 571 620 L 574 623 L 575 626 L 576 631 L 576 633 L 575 634 L 573 638 L 571 636 L 571 634 L 573 632 L 573 629 L 572 626 L 568 619 Z" fill="none" stroke="none" /><path d="M 548 586 L 546 589 L 544 592 L 541 597 L 538 603 L 538 605 L 537 607 L 535 608 L 534 610 L 533 615 L 533 626 L 530 630 L 530 633 L 529 634 L 528 636 L 526 623 L 525 632 L 527 638 L 527 640 L 525 642 L 525 648 L 523 651 L 522 656 L 521 662 L 522 670 L 520 672 L 520 681 L 521 691 L 522 696 L 523 697 L 523 700 L 522 716 L 524 721 L 524 734 L 526 741 L 525 748 L 526 754 L 523 766 L 521 770 L 523 768 L 524 765 L 525 761 L 526 757 L 527 752 L 527 750 L 526 746 L 527 743 L 526 730 L 526 723 L 530 723 L 529 729 L 529 731 L 531 741 L 530 744 L 531 745 L 531 747 L 530 752 L 529 757 L 528 761 L 526 768 L 521 778 L 520 783 L 518 788 L 516 793 L 513 800 L 507 812 L 505 815 L 500 822 L 497 825 L 495 824 L 495 827 L 494 829 L 491 833 L 483 844 L 478 853 L 475 860 L 474 863 L 473 866 L 472 873 L 470 875 L 468 873 L 467 871 L 470 869 L 469 867 L 467 866 L 467 863 L 466 859 L 467 853 L 470 846 L 471 842 L 469 840 L 471 836 L 475 831 L 475 830 L 476 828 L 473 831 L 471 834 L 469 837 L 467 842 L 467 844 L 468 848 L 467 854 L 466 855 L 465 857 L 464 838 L 465 833 L 469 829 L 471 824 L 473 821 L 470 824 L 469 827 L 468 829 L 465 829 L 466 825 L 472 818 L 472 817 L 473 815 L 471 816 L 467 818 L 468 815 L 470 809 L 471 807 L 470 802 L 471 798 L 472 796 L 473 795 L 477 792 L 478 790 L 479 784 L 480 772 L 478 773 L 478 787 L 476 791 L 475 793 L 472 792 L 473 753 L 472 747 L 471 743 L 469 741 L 469 743 L 470 744 L 471 748 L 472 753 L 472 760 L 470 761 L 469 767 L 468 765 L 468 769 L 470 770 L 469 776 L 468 781 L 467 785 L 466 788 L 465 790 L 463 792 L 462 794 L 454 811 L 454 814 L 451 820 L 445 828 L 441 836 L 439 839 L 441 840 L 440 842 L 438 844 L 437 846 L 436 848 L 436 851 L 435 854 L 433 854 L 434 857 L 433 858 L 432 862 L 431 860 L 429 862 L 429 868 L 428 869 L 428 874 L 428 871 L 429 870 L 429 864 L 430 863 L 431 861 L 432 867 L 430 872 L 429 886 L 428 893 L 426 894 L 426 896 L 427 894 L 429 901 L 428 910 L 429 914 L 430 918 L 431 921 L 434 927 L 432 928 L 430 926 L 429 923 L 426 916 L 424 907 L 424 903 L 426 902 L 426 900 L 423 900 L 422 887 L 423 867 L 422 863 L 422 861 L 423 860 L 423 857 L 425 854 L 425 851 L 428 843 L 431 838 L 434 833 L 436 830 L 439 826 L 437 827 L 437 828 L 435 830 L 434 833 L 430 838 L 428 843 L 426 845 L 425 843 L 426 841 L 429 835 L 431 833 L 432 830 L 433 828 L 432 830 L 430 833 L 424 841 L 423 843 L 422 845 L 420 851 L 417 860 L 416 864 L 415 871 L 417 866 L 418 881 L 417 882 L 417 893 L 419 893 L 419 896 L 420 897 L 419 900 L 417 898 L 418 901 L 419 902 L 419 904 L 421 903 L 422 910 L 423 914 L 424 917 L 427 924 L 428 926 L 429 928 L 431 930 L 434 936 L 434 939 L 438 944 L 438 947 L 439 949 L 442 954 L 448 960 L 446 961 L 444 960 L 432 953 L 429 951 L 422 946 L 415 939 L 412 935 L 409 931 L 407 927 L 403 919 L 399 909 L 398 899 L 398 889 L 400 885 L 402 888 L 401 873 L 402 869 L 403 866 L 404 863 L 410 848 L 413 842 L 416 837 L 419 833 L 426 825 L 434 812 L 437 808 L 441 804 L 444 800 L 453 787 L 455 784 L 459 776 L 460 773 L 461 769 L 462 761 L 462 754 L 460 742 L 459 736 L 454 722 L 455 719 L 454 717 L 451 714 L 451 716 L 453 720 L 455 727 L 456 732 L 456 739 L 456 746 L 454 750 L 453 763 L 452 767 L 451 771 L 450 774 L 449 776 L 448 778 L 450 776 L 451 774 L 452 777 L 450 781 L 448 786 L 444 794 L 441 799 L 436 805 L 428 815 L 422 821 L 419 826 L 414 831 L 412 836 L 410 838 L 410 835 L 410 833 L 409 835 L 409 837 L 410 839 L 409 841 L 408 843 L 405 846 L 403 850 L 400 856 L 399 859 L 400 862 L 396 867 L 395 869 L 394 873 L 395 876 L 394 880 L 392 884 L 392 889 L 393 900 L 394 904 L 396 908 L 396 912 L 397 916 L 398 919 L 401 924 L 400 927 L 398 924 L 399 926 L 401 931 L 403 933 L 404 936 L 406 938 L 405 936 L 403 934 L 403 930 L 405 932 L 407 935 L 408 938 L 416 946 L 417 949 L 420 948 L 421 948 L 422 951 L 422 953 L 424 957 L 423 962 L 420 959 L 417 955 L 414 951 L 413 948 L 414 950 L 414 954 L 412 952 L 410 948 L 411 950 L 411 951 L 412 955 L 409 952 L 406 948 L 404 943 L 406 943 L 405 941 L 404 939 L 400 934 L 399 931 L 397 928 L 398 930 L 398 934 L 395 931 L 394 928 L 391 925 L 390 922 L 387 919 L 386 917 L 386 915 L 388 914 L 387 912 L 387 910 L 385 907 L 384 902 L 382 900 L 382 902 L 385 907 L 386 910 L 385 913 L 384 911 L 383 910 L 382 906 L 382 910 L 384 914 L 385 917 L 388 920 L 388 922 L 390 925 L 392 928 L 397 934 L 399 937 L 404 946 L 410 955 L 418 963 L 421 964 L 428 969 L 430 971 L 433 969 L 436 971 L 441 975 L 445 976 L 450 980 L 452 981 L 454 982 L 461 984 L 469 988 L 472 990 L 470 988 L 462 984 L 455 982 L 453 981 L 451 976 L 453 976 L 451 975 L 454 974 L 455 975 L 457 975 L 454 974 L 453 973 L 451 973 L 451 975 L 449 974 L 448 976 L 443 971 L 442 968 L 438 964 L 437 964 L 432 959 L 429 958 L 427 956 L 426 956 L 427 953 L 429 954 L 439 959 L 453 967 L 456 969 L 464 977 L 464 978 L 468 981 L 466 979 L 464 976 L 463 974 L 463 970 L 461 962 L 459 959 L 460 956 L 463 959 L 464 962 L 467 965 L 471 967 L 473 972 L 471 971 L 469 970 L 465 966 L 463 965 L 464 967 L 468 971 L 469 971 L 473 975 L 472 977 L 475 980 L 473 981 L 466 974 L 465 972 L 467 975 L 467 976 L 472 981 L 476 984 L 479 986 L 482 987 L 485 990 L 488 992 L 490 993 L 487 991 L 483 988 L 481 986 L 483 985 L 485 986 L 491 990 L 494 993 L 493 991 L 492 991 L 489 988 L 481 984 L 477 981 L 474 975 L 476 975 L 479 977 L 488 985 L 492 987 L 496 990 L 504 998 L 506 1001 L 507 1004 L 509 1007 L 508 1005 L 508 1003 L 507 1001 L 506 999 L 504 996 L 493 986 L 491 984 L 490 982 L 492 981 L 495 984 L 497 985 L 498 983 L 503 988 L 501 983 L 505 988 L 507 990 L 508 985 L 506 982 L 502 977 L 501 975 L 501 973 L 505 972 L 506 974 L 506 976 L 507 978 L 509 980 L 510 982 L 510 985 L 516 997 L 517 1000 L 517 1005 L 518 1006 L 518 1009 L 518 1006 L 520 1003 L 520 997 L 521 990 L 523 987 L 526 991 L 526 985 L 523 986 L 523 982 L 522 979 L 521 977 L 519 974 L 520 976 L 521 979 L 522 982 L 519 985 L 519 984 L 517 982 L 516 979 L 516 974 L 517 971 L 518 968 L 521 962 L 523 960 L 533 969 L 533 971 L 531 973 L 531 975 L 530 977 L 528 979 L 528 976 L 528 974 L 529 973 L 529 971 L 529 973 L 528 974 L 527 977 L 527 979 L 528 992 L 528 988 L 529 987 L 529 985 L 530 982 L 532 984 L 532 986 L 531 994 L 532 1000 L 533 1002 L 534 1004 L 540 1010 L 542 1011 L 535 1004 L 534 1002 L 533 999 L 532 982 L 532 979 L 533 975 L 534 972 L 536 970 L 537 973 L 535 976 L 535 978 L 536 976 L 539 969 L 541 966 L 544 963 L 546 959 L 548 954 L 549 952 L 551 954 L 551 956 L 547 963 L 546 967 L 545 975 L 543 983 L 541 985 L 539 984 L 539 986 L 542 988 L 541 1000 L 542 1002 L 544 1002 L 543 988 L 545 985 L 546 981 L 547 974 L 549 972 L 550 1000 L 549 1004 L 550 1002 L 551 1000 L 552 990 L 552 967 L 553 964 L 561 949 L 562 952 L 561 955 L 559 959 L 558 968 L 557 970 L 554 973 L 557 971 L 557 974 L 557 975 L 555 977 L 558 975 L 558 973 L 559 972 L 560 970 L 561 973 L 561 971 L 562 968 L 564 965 L 567 962 L 568 964 L 567 966 L 565 968 L 564 970 L 563 972 L 562 976 L 562 988 L 560 990 L 559 993 L 559 1000 L 559 995 L 560 991 L 561 990 L 562 988 L 565 991 L 565 996 L 564 998 L 570 993 L 567 991 L 567 989 L 568 987 L 570 985 L 571 985 L 572 984 L 575 979 L 573 979 L 570 982 L 568 987 L 566 989 L 565 987 L 564 986 L 564 978 L 566 974 L 568 974 L 570 972 L 572 969 L 574 966 L 575 964 L 576 962 L 577 959 L 577 956 L 578 955 L 578 953 L 574 957 L 569 958 L 574 953 L 579 947 L 582 942 L 589 935 L 592 930 L 597 925 L 602 918 L 603 916 L 603 913 L 603 915 L 600 918 L 599 915 L 602 910 L 604 905 L 605 902 L 605 898 L 606 897 L 605 894 L 605 899 L 604 904 L 603 906 L 601 908 L 600 906 L 601 901 L 603 897 L 603 884 L 602 873 L 604 874 L 605 886 L 606 888 L 605 880 L 606 877 L 608 879 L 609 881 L 610 884 L 611 887 L 612 891 L 612 908 L 611 912 L 608 917 L 610 919 L 609 921 L 607 923 L 605 928 L 599 937 L 591 946 L 596 946 L 593 949 L 591 952 L 589 955 L 586 960 L 585 962 L 584 966 L 583 968 L 579 972 L 579 975 L 582 972 L 583 972 L 586 969 L 586 968 L 590 963 L 596 957 L 597 959 L 593 965 L 590 969 L 585 974 L 585 975 L 583 977 L 591 969 L 597 959 L 600 956 L 601 958 L 603 956 L 604 956 L 605 954 L 603 953 L 607 949 L 608 949 L 611 946 L 611 945 L 615 941 L 621 932 L 623 928 L 626 922 L 628 915 L 631 911 L 630 910 L 632 909 L 633 905 L 636 895 L 637 890 L 637 884 L 637 890 L 636 894 L 635 895 L 634 897 L 633 890 L 635 878 L 635 872 L 634 868 L 633 865 L 631 862 L 632 859 L 634 861 L 635 863 L 636 865 L 637 868 L 638 873 L 637 880 L 638 882 L 640 883 L 640 888 L 639 889 L 639 895 L 636 907 L 635 910 L 633 911 L 633 916 L 632 921 L 630 925 L 628 925 L 629 928 L 627 931 L 626 933 L 627 931 L 630 929 L 630 931 L 634 927 L 636 922 L 637 920 L 636 922 L 634 927 L 631 930 L 630 928 L 631 926 L 634 921 L 638 912 L 639 909 L 640 904 L 640 893 L 644 890 L 644 892 L 643 906 L 641 911 L 641 917 L 640 920 L 639 923 L 638 925 L 637 927 L 634 931 L 628 937 L 621 948 L 612 957 L 611 957 L 601 967 L 604 964 L 605 964 L 612 957 L 621 952 L 613 960 L 605 967 L 601 969 L 596 973 L 590 976 L 595 971 L 596 971 L 599 968 L 597 969 L 591 977 L 588 978 L 584 982 L 586 980 L 588 979 L 590 979 L 599 977 L 595 980 L 597 980 L 602 976 L 607 974 L 611 970 L 614 968 L 619 966 L 623 963 L 631 955 L 635 953 L 643 945 L 645 939 L 648 935 L 649 933 L 649 931 L 650 929 L 651 927 L 654 927 L 654 929 L 657 930 L 655 933 L 655 935 L 654 937 L 653 939 L 652 942 L 655 938 L 656 936 L 657 934 L 659 927 L 661 925 L 662 922 L 664 912 L 668 905 L 669 902 L 667 904 L 664 910 L 663 906 L 664 905 L 664 900 L 665 899 L 666 893 L 665 888 L 668 882 L 667 879 L 669 872 L 670 890 L 670 872 L 669 865 L 668 859 L 667 855 L 666 851 L 662 844 L 663 839 L 666 842 L 667 845 L 670 852 L 673 860 L 676 869 L 677 876 L 677 898 L 676 904 L 675 907 L 670 919 L 667 926 L 666 928 L 663 933 L 661 936 L 659 939 L 656 943 L 641 958 L 633 961 L 636 958 L 636 957 L 640 953 L 640 951 L 632 959 L 632 960 L 631 964 L 625 969 L 618 974 L 617 974 L 610 981 L 605 985 L 603 985 L 601 987 L 596 986 L 591 989 L 589 991 L 587 992 L 590 992 L 592 990 L 594 989 L 597 989 L 600 987 L 604 988 L 605 985 L 607 983 L 611 981 L 616 976 L 623 971 L 634 964 L 637 961 L 639 960 L 640 963 L 636 971 L 634 973 L 627 978 L 618 986 L 620 987 L 618 989 L 615 991 L 612 993 L 607 996 L 604 997 L 602 999 L 604 998 L 607 996 L 608 996 L 614 993 L 617 991 L 620 989 L 624 986 L 631 979 L 633 980 L 635 978 L 640 972 L 640 975 L 643 972 L 646 971 L 655 962 L 662 954 L 663 951 L 668 945 L 669 947 L 668 944 L 670 942 L 673 936 L 675 931 L 676 926 L 675 924 L 677 920 L 680 917 L 679 920 L 681 919 L 681 918 L 684 915 L 686 911 L 687 914 L 686 917 L 685 919 L 683 921 L 683 922 L 680 923 L 678 925 L 682 926 L 681 928 L 677 935 L 675 937 L 674 939 L 673 941 L 675 939 L 675 938 L 679 933 L 682 927 L 682 924 L 685 920 L 686 917 L 687 911 L 689 908 L 690 901 L 691 900 L 690 898 L 690 900 L 688 906 L 687 908 L 686 910 L 683 910 L 683 907 L 686 899 L 690 892 L 691 888 L 691 885 L 692 881 L 694 878 L 693 873 L 695 862 L 694 854 L 693 848 L 691 846 L 688 836 L 687 838 L 684 832 L 685 829 L 682 829 L 684 832 L 686 837 L 687 843 L 688 845 L 690 844 L 691 846 L 690 855 L 691 875 L 690 885 L 688 889 L 687 875 L 686 874 L 685 870 L 686 890 L 684 895 L 684 897 L 684 900 L 682 900 L 682 904 L 681 905 L 681 907 L 682 904 L 683 908 L 682 909 L 682 913 L 677 915 L 678 913 L 680 909 L 679 903 L 681 898 L 681 889 L 680 874 L 679 870 L 676 863 L 674 852 L 673 849 L 671 845 L 670 843 L 666 837 L 666 835 L 661 830 L 659 827 L 658 825 L 657 823 L 656 817 L 654 812 L 653 810 L 650 806 L 649 802 L 648 798 L 649 795 L 648 790 L 646 785 L 646 772 L 647 766 L 650 757 L 653 752 L 653 750 L 652 753 L 650 757 L 648 761 L 647 757 L 649 754 L 648 756 L 646 760 L 645 765 L 644 789 L 642 787 L 642 777 L 641 784 L 640 782 L 639 781 L 639 778 L 640 769 L 641 763 L 642 758 L 643 755 L 652 746 L 654 745 L 656 747 L 660 741 L 657 741 L 658 739 L 664 732 L 662 733 L 656 739 L 653 744 L 649 748 L 645 752 L 644 748 L 647 740 L 650 735 L 653 731 L 656 727 L 659 724 L 660 724 L 663 721 L 658 725 L 657 725 L 652 731 L 649 731 L 649 728 L 651 726 L 649 727 L 648 727 L 644 730 L 637 737 L 635 742 L 632 745 L 631 743 L 633 740 L 634 737 L 636 734 L 633 737 L 632 739 L 632 741 L 630 745 L 629 747 L 632 748 L 628 752 L 625 756 L 624 759 L 622 761 L 621 757 L 623 751 L 623 749 L 622 751 L 621 753 L 621 756 L 620 759 L 617 764 L 617 770 L 614 775 L 613 778 L 612 781 L 611 787 L 609 785 L 608 775 L 608 763 L 607 757 L 606 752 L 603 741 L 601 736 L 599 734 L 597 729 L 595 722 L 588 708 L 586 705 L 586 707 L 588 709 L 594 721 L 597 728 L 596 731 L 594 729 L 589 722 L 587 719 L 585 716 L 584 713 L 582 710 L 577 704 L 575 701 L 573 696 L 571 693 L 566 688 L 563 683 L 560 677 L 557 673 L 550 665 L 549 662 L 546 655 L 543 646 L 542 638 L 542 622 L 543 621 L 543 617 L 542 621 L 541 622 L 540 637 L 539 635 L 538 634 L 537 629 L 536 625 L 536 612 L 537 609 L 538 606 L 544 594 L 548 589 L 549 586 L 551 584 Z" fill="#c8c4b4" stroke="none" /><path d="M 518 985 L 518 986 L 520 988 L 519 998 L 517 995 L 518 994 L 515 988 Z" fill="none" stroke="none" /><path d="M 476 968 L 481 973 L 488 978 L 491 981 L 489 982 L 486 980 L 480 975 L 475 970 Z" fill="none" stroke="none" /><path d="M 608 967 L 605 970 L 600 971 L 604 967 Z" fill="none" stroke="none" /><path d="M 507 966 L 509 968 L 509 971 L 510 973 L 511 975 L 511 978 L 509 976 L 507 973 L 506 970 Z" fill="none" stroke="none" /><path d="M 476 965 L 478 966 L 483 971 L 487 973 L 491 976 L 497 982 L 495 983 L 491 979 L 487 977 L 483 974 L 476 968 Z" fill="none" stroke="none" /><path d="M 651 960 L 653 962 L 649 966 L 648 964 Z" fill="none" stroke="none" /><path d="M 573 960 L 574 962 L 573 964 L 569 968 L 568 966 L 569 964 Z" fill="none" stroke="none" /><path d="M 472 960 L 474 959 L 479 964 L 484 968 L 489 971 L 494 975 L 500 984 L 493 977 L 488 973 L 484 971 L 480 968 Z" fill="none" stroke="none" /><path d="M 619 957 L 622 958 L 618 962 L 614 964 L 608 966 L 612 962 Z" fill="none" stroke="none" /><path d="M 511 957 L 513 959 L 514 961 L 515 963 L 516 967 L 516 970 L 515 973 L 513 975 L 511 972 L 513 972 L 513 970 L 512 969 L 512 967 L 509 962 Z" fill="none" stroke="none" /><path d="M 426 957 L 428 958 L 431 960 L 435 964 L 439 966 L 441 968 L 440 971 L 438 969 L 434 967 L 432 965 L 435 968 L 432 968 L 430 969 L 426 964 L 424 961 Z" fill="none" stroke="none" /><path d="M 481 956 L 485 960 L 483 961 L 480 958 Z" fill="none" stroke="none" /><path d="M 512 954 L 514 956 L 514 960 L 512 958 L 511 956 Z" fill="none" stroke="none" /><path d="M 489 954 L 491 955 L 494 958 L 495 958 L 497 960 L 497 961 L 500 964 L 502 967 L 502 969 L 500 971 L 495 966 L 489 958 L 488 956 Z" fill="none" stroke="none" /><path d="M 466 949 L 468 951 L 469 951 L 474 956 L 479 960 L 485 965 L 488 967 L 491 968 L 494 970 L 502 978 L 505 982 L 507 985 L 506 988 L 492 973 L 487 970 L 476 960 L 473 958 L 470 957 L 465 952 Z" fill="none" stroke="none" /><path d="M 522 948 L 525 951 L 526 953 L 526 956 L 524 958 L 522 958 L 520 956 L 520 950 Z" fill="none" stroke="none" /><path d="M 514 948 L 516 950 L 518 954 L 516 957 L 514 955 L 512 952 L 512 950 Z" fill="none" stroke="none" /><path d="M 478 949 L 480 948 L 484 951 L 488 955 L 486 956 L 484 955 Z" fill="none" stroke="none" /><path d="M 552 948 L 551 950 L 546 958 L 542 964 L 539 967 L 538 963 L 540 960 L 545 952 L 547 949 Z" fill="none" stroke="none" /><path d="M 537 946 L 538 949 L 537 951 L 535 953 L 535 950 L 535 948 Z" fill="none" stroke="none" /><path d="M 551 943 L 550 945 L 547 948 L 545 951 L 545 952 L 542 951 L 543 949 L 545 946 L 547 943 Z" fill="none" stroke="none" /><path d="M 464 940 L 466 939 L 472 945 L 477 948 L 486 956 L 486 960 L 477 951 L 471 947 Z" fill="none" stroke="none" /><path d="M 517 937 L 518 940 L 519 941 L 518 944 L 515 943 L 515 939 Z" fill="none" stroke="none" /><path d="M 459 937 L 461 938 L 468 945 L 473 948 L 477 952 L 478 952 L 480 957 L 477 954 L 473 951 L 469 949 L 463 944 L 458 939 Z" fill="none" stroke="none" /><path d="M 572 936 L 573 938 L 570 942 L 570 945 L 569 944 L 567 946 L 566 948 L 565 951 L 566 949 L 572 943 L 573 945 L 568 950 L 565 955 L 564 957 L 563 959 L 563 962 L 562 964 L 561 966 L 562 964 L 563 962 L 563 959 L 564 957 L 565 955 L 568 950 L 574 944 L 575 946 L 570 951 L 569 953 L 568 955 L 569 953 L 573 948 L 578 943 L 579 945 L 576 949 L 572 953 L 570 956 L 570 957 L 570 959 L 569 961 L 567 960 L 565 963 L 563 966 L 562 968 L 561 971 L 560 968 L 559 970 L 558 972 L 557 969 L 559 966 L 559 963 L 560 960 L 563 955 L 564 953 L 563 949 L 564 947 L 565 945 L 568 942 L 569 939 Z" fill="none" stroke="none" /><path d="M 452 935 L 454 935 L 457 938 L 458 941 L 462 945 L 463 947 L 463 954 L 461 952 L 463 954 L 463 955 L 472 967 L 463 959 L 461 957 L 460 955 L 459 953 L 459 951 L 458 949 L 454 945 L 451 939 Z" fill="none" stroke="none" /><path d="M 563 934 L 564 936 L 565 937 L 565 940 L 559 951 L 559 953 L 558 955 L 556 953 L 556 951 L 562 940 L 563 938 L 562 940 L 560 942 L 559 945 L 558 947 L 555 946 L 556 944 L 559 939 L 561 936 Z" fill="none" stroke="none" /><path d="M 463 935 L 465 934 L 470 939 L 476 942 L 482 947 L 489 950 L 493 954 L 490 955 L 485 951 L 474 945 L 467 940 L 465 938 L 465 937 Z" fill="none" stroke="none" /><path d="M 561 930 L 562 933 L 558 937 L 556 941 L 554 943 L 552 940 L 559 932 Z" fill="none" stroke="none" /><path d="M 670 928 L 671 931 L 669 934 L 665 942 L 663 945 L 661 948 L 658 951 L 652 956 L 651 959 L 649 962 L 640 971 L 639 969 L 641 966 L 642 961 L 644 959 L 647 958 L 651 954 L 659 945 L 662 941 L 664 938 L 666 935 L 667 932 Z" fill="none" stroke="none" /><path d="M 579 929 L 582 929 L 583 931 L 583 934 L 584 936 L 582 938 L 580 938 L 575 945 L 574 943 L 576 941 L 577 939 L 575 941 L 575 942 L 573 944 L 572 942 L 574 939 L 574 937 L 575 935 L 579 930 Z" fill="none" stroke="none" /><path d="M 559 926 L 560 928 L 560 931 L 554 936 L 553 938 L 552 934 L 554 933 L 556 929 Z" fill="none" stroke="none" /><path d="M 451 923 L 453 926 L 455 926 L 456 926 L 457 929 L 459 931 L 458 934 L 455 931 L 454 931 L 451 928 L 449 925 Z" fill="none" stroke="none" /><path d="M 482 922 L 484 924 L 484 925 L 486 927 L 495 935 L 496 937 L 494 938 L 491 935 L 494 938 L 496 940 L 505 948 L 506 949 L 508 952 L 507 953 L 509 955 L 510 957 L 508 958 L 503 953 L 506 961 L 502 957 L 495 949 L 492 945 L 491 943 L 494 943 L 494 944 L 497 947 L 496 945 L 493 942 L 490 942 L 492 945 L 492 946 L 495 950 L 502 957 L 503 960 L 503 964 L 503 963 L 498 956 L 488 946 L 486 943 L 487 940 L 487 940 L 485 938 L 483 935 L 481 931 L 481 929 L 483 927 L 481 925 Z" fill="none" stroke="none" /><path d="M 571 921 L 572 923 L 574 924 L 571 925 L 569 929 L 569 932 L 567 934 L 564 932 L 565 930 L 567 928 L 569 923 Z" fill="none" stroke="none" /><path d="M 587 917 L 588 919 L 586 923 L 584 925 L 583 923 L 585 919 Z" fill="none" stroke="none" /><path d="M 520 916 L 522 921 L 522 934 L 523 939 L 524 941 L 523 939 L 523 932 L 522 931 L 523 924 L 525 926 L 525 937 L 526 934 L 526 928 L 528 930 L 528 939 L 529 933 L 531 935 L 531 937 L 530 939 L 533 945 L 533 948 L 533 945 L 533 938 L 533 940 L 536 945 L 536 947 L 535 950 L 535 953 L 535 955 L 534 957 L 533 959 L 530 959 L 528 957 L 527 955 L 529 953 L 530 955 L 529 953 L 529 951 L 531 946 L 530 948 L 529 950 L 529 946 L 529 942 L 530 944 L 529 941 L 528 943 L 527 941 L 526 939 L 527 941 L 528 943 L 527 945 L 529 946 L 527 955 L 526 951 L 525 948 L 521 941 L 520 938 L 519 933 L 518 927 L 518 919 L 519 918 Z" fill="none" stroke="none" /><path d="M 596 915 L 597 918 L 596 921 L 595 923 L 593 925 L 592 923 L 594 920 L 594 918 L 595 917 Z" fill="none" stroke="none" /><path d="M 565 915 L 566 918 L 562 921 L 562 918 Z" fill="none" stroke="none" /><path d="M 575 914 L 576 916 L 574 920 L 572 922 L 571 920 L 573 916 Z" fill="none" stroke="none" /><path d="M 442 914 L 443 919 L 444 921 L 448 926 L 449 928 L 450 931 L 448 934 L 446 932 L 444 928 L 440 920 L 439 917 Z" fill="none" stroke="none" /><path d="M 451 913 L 452 915 L 453 917 L 452 921 L 449 918 L 448 916 Z" fill="none" stroke="none" /><path d="M 585 911 L 586 914 L 585 916 L 583 919 L 580 923 L 572 931 L 571 928 L 580 919 L 581 916 L 583 913 Z" fill="none" stroke="none" /><path d="M 578 909 L 579 911 L 578 913 L 576 915 L 575 913 L 576 911 Z" fill="none" stroke="none" /><path d="M 644 907 L 646 909 L 647 911 L 647 921 L 646 924 L 643 930 L 641 932 L 640 929 L 641 927 L 643 925 L 644 922 L 644 916 L 644 920 L 643 923 L 634 940 L 631 944 L 627 948 L 627 949 L 622 950 L 624 948 L 624 946 L 626 943 L 633 936 L 635 932 L 639 925 L 640 923 L 641 920 L 642 916 L 642 910 L 643 909 Z" fill="none" stroke="none" /><path d="M 527 905 L 529 907 L 530 914 L 529 916 L 531 920 L 529 922 L 527 918 L 526 914 Z" fill="none" stroke="none" /><path d="M 561 903 L 561 906 L 560 907 L 560 911 L 558 914 L 556 914 L 554 918 L 552 923 L 550 930 L 551 926 L 552 925 L 553 923 L 554 926 L 553 929 L 550 934 L 549 932 L 550 935 L 548 935 L 547 937 L 547 939 L 543 948 L 541 951 L 538 954 L 537 956 L 537 958 L 538 959 L 538 961 L 534 965 L 533 962 L 532 960 L 534 958 L 535 960 L 535 956 L 535 954 L 536 952 L 538 951 L 541 946 L 543 940 L 546 933 L 549 922 L 551 917 L 554 912 L 556 909 L 555 907 L 556 905 Z" fill="none" stroke="none" /><path d="M 471 902 L 473 908 L 475 911 L 476 914 L 477 920 L 481 927 L 479 928 L 476 925 L 475 922 L 473 916 L 473 912 L 471 909 L 470 906 Z" fill="none" stroke="none" /><path d="M 632 900 L 633 903 L 632 904 L 631 909 L 629 907 L 629 905 Z" fill="none" stroke="none" /><path d="M 435 901 L 435 911 L 437 913 L 437 917 L 438 920 L 439 922 L 440 924 L 442 926 L 443 928 L 456 955 L 460 964 L 455 964 L 457 963 L 452 958 L 446 949 L 442 941 L 442 938 L 438 931 L 436 926 L 436 921 L 434 918 L 433 914 L 432 909 Z" fill="none" stroke="none" /><path d="M 447 900 L 448 902 L 449 907 L 448 913 L 446 911 L 445 908 L 444 905 L 443 901 Z" fill="none" stroke="none" /><path d="M 441 900 L 442 902 L 443 905 L 444 909 L 443 913 L 442 911 L 441 910 L 440 907 L 439 904 L 440 908 L 442 912 L 438 912 L 437 909 L 437 903 Z" fill="none" stroke="none" /><path d="M 599 899 L 602 899 L 601 902 L 600 905 L 595 917 L 593 922 L 592 924 L 590 926 L 589 928 L 590 929 L 589 931 L 585 932 L 584 930 L 584 925 L 587 922 L 590 917 L 593 912 L 598 901 Z" fill="none" stroke="none" /><path d="M 479 898 L 480 901 L 480 906 L 483 911 L 484 916 L 485 918 L 487 921 L 493 928 L 493 929 L 496 932 L 495 930 L 491 925 L 489 921 L 491 919 L 499 927 L 508 939 L 510 942 L 512 945 L 512 947 L 513 949 L 511 951 L 500 939 L 497 934 L 489 928 L 486 924 L 483 920 L 480 914 L 478 909 L 477 906 L 476 902 Z" fill="none" stroke="none" /><path d="M 457 894 L 459 896 L 459 898 L 459 901 L 457 899 L 456 897 Z" fill="none" stroke="none" /><path d="M 581 893 L 582 899 L 580 905 L 579 899 Z" fill="none" stroke="none" /><path d="M 483 892 L 484 894 L 485 895 L 485 899 L 488 910 L 490 913 L 491 916 L 490 919 L 487 916 L 486 914 L 483 906 L 482 902 Z" fill="none" stroke="none" /><path d="M 645 890 L 646 896 L 647 892 L 650 896 L 651 899 L 650 901 L 651 905 L 650 911 L 648 915 L 647 909 L 645 904 L 644 897 Z" fill="none" stroke="none" /><path d="M 543 891 L 545 890 L 547 892 L 547 899 L 545 903 L 543 901 L 543 898 L 541 895 L 542 892 Z" fill="none" stroke="none" /><path d="M 443 889 L 445 891 L 446 893 L 446 898 L 444 900 L 442 896 Z" fill="none" stroke="none" /><path d="M 557 888 L 559 890 L 560 897 L 560 899 L 559 900 L 558 902 L 556 900 L 555 890 Z" fill="none" stroke="none" /><path d="M 630 886 L 631 891 L 630 892 L 630 897 L 625 916 L 624 919 L 618 931 L 613 939 L 611 941 L 611 938 L 612 936 L 611 938 L 609 941 L 606 945 L 602 950 L 598 954 L 597 952 L 595 954 L 591 959 L 590 957 L 594 951 L 598 947 L 609 932 L 616 922 L 618 918 L 623 909 L 624 906 L 626 900 L 627 896 L 627 892 L 628 888 Z" fill="none" stroke="none" /><path d="M 601 886 L 603 888 L 603 894 L 601 898 Z" fill="none" stroke="none" /><path d="M 598 885 L 600 887 L 600 893 L 598 897 Z" fill="none" stroke="none" /><path d="M 520 882 L 521 887 L 522 888 L 521 892 L 519 888 Z" fill="none" stroke="none" /><path d="M 522 880 L 524 882 L 525 885 L 526 891 L 527 897 L 527 902 L 525 904 L 525 910 L 525 912 L 525 914 L 527 923 L 525 925 L 523 922 L 522 920 L 522 917 L 520 914 L 520 903 L 522 903 L 520 895 L 522 893 L 524 898 L 523 896 L 523 891 L 521 886 L 520 882 Z" fill="none" stroke="none" /><path d="M 536 866 L 536 869 L 537 876 L 536 883 L 533 882 L 532 880 L 532 876 Z" fill="none" stroke="none" /><path d="M 539 865 L 539 867 L 538 869 L 540 877 L 540 880 L 539 881 L 539 883 L 539 881 L 540 880 L 539 874 L 542 872 L 543 874 L 545 886 L 546 887 L 543 889 L 542 887 L 542 883 L 543 889 L 543 891 L 541 893 L 540 885 L 539 890 L 537 887 L 536 884 L 536 873 Z" fill="none" stroke="none" /><path d="M 436 863 L 435 867 L 433 872 L 432 878 L 432 891 L 428 895 L 429 883 L 430 875 L 431 869 L 432 865 Z" fill="none" stroke="none" /><path d="M 550 860 L 551 863 L 554 872 L 552 876 L 550 874 L 550 869 L 547 862 Z" fill="none" stroke="none" /><path d="M 655 858 L 656 879 L 653 893 L 651 897 L 648 893 L 648 889 L 651 880 L 651 864 L 653 862 L 654 876 L 653 877 L 653 881 L 653 879 L 654 878 Z" fill="none" stroke="none" /><path d="M 528 857 L 529 871 L 532 867 L 533 871 L 532 872 L 531 876 L 530 873 L 530 880 L 531 882 L 536 888 L 537 889 L 538 891 L 540 895 L 542 901 L 543 907 L 542 911 L 540 914 L 539 918 L 539 923 L 537 928 L 535 927 L 536 929 L 536 931 L 535 934 L 534 935 L 533 937 L 532 933 L 533 932 L 533 930 L 533 927 L 533 924 L 533 926 L 532 927 L 532 929 L 533 930 L 530 932 L 529 929 L 530 922 L 531 924 L 531 915 L 534 918 L 534 920 L 536 922 L 536 924 L 535 907 L 535 905 L 536 904 L 536 901 L 534 899 L 534 896 L 534 899 L 535 900 L 534 905 L 533 903 L 532 902 L 531 898 L 528 886 L 527 881 Z" fill="none" stroke="none" /><path d="M 627 855 L 628 855 L 629 856 L 630 858 L 631 862 L 633 870 L 632 881 L 630 879 L 630 870 L 627 861 L 627 857 L 627 862 L 628 863 L 629 869 L 629 879 L 627 877 L 626 875 L 625 871 L 624 861 Z" fill="none" stroke="none" /><path d="M 594 854 L 596 856 L 597 858 L 601 869 L 602 881 L 600 884 L 599 876 L 598 869 L 595 863 L 593 857 Z" fill="none" stroke="none" /><path d="M 585 854 L 587 861 L 587 863 L 587 869 L 587 871 L 584 871 Z" fill="none" stroke="none" /><path d="M 536 854 L 538 858 L 538 862 L 536 864 Z" fill="none" stroke="none" /><path d="M 455 854 L 456 857 L 455 858 L 453 866 L 452 872 L 452 886 L 453 892 L 456 896 L 456 898 L 459 902 L 460 907 L 464 913 L 462 911 L 461 908 L 464 906 L 464 907 L 466 909 L 467 911 L 467 913 L 469 915 L 470 917 L 469 922 L 470 925 L 471 928 L 476 936 L 473 937 L 471 936 L 467 933 L 463 929 L 461 926 L 459 922 L 456 916 L 455 913 L 454 909 L 454 903 L 453 902 L 453 899 L 450 897 L 449 895 L 447 887 L 445 884 L 445 882 L 447 880 L 449 882 L 449 886 L 449 882 L 448 881 L 448 876 L 449 870 L 450 866 L 451 863 L 452 862 L 452 860 L 451 862 L 450 864 L 449 867 L 448 870 L 447 878 L 448 879 L 445 879 L 445 868 L 448 864 L 449 860 L 450 858 L 452 856 L 453 858 L 453 856 Z" fill="none" stroke="none" /><path d="M 445 849 L 446 853 L 444 856 L 443 860 L 442 865 L 443 867 L 441 870 L 442 872 L 441 876 L 441 890 L 439 888 L 438 896 L 436 894 L 436 885 L 437 869 L 438 865 L 441 856 L 443 851 Z" fill="none" stroke="none" /><path d="M 589 847 L 592 852 L 593 855 L 596 866 L 596 870 L 598 874 L 598 883 L 596 890 L 596 896 L 598 898 L 597 902 L 594 909 L 593 911 L 590 916 L 588 918 L 587 916 L 589 911 L 591 909 L 592 905 L 593 901 L 592 897 L 593 889 L 594 883 L 595 882 L 595 878 L 594 870 L 590 854 L 588 850 Z" fill="none" stroke="none" /><path d="M 597 843 L 599 845 L 599 848 L 600 849 L 599 852 L 595 847 Z" fill="none" stroke="none" /><path d="M 542 840 L 543 845 L 544 848 L 546 851 L 547 855 L 546 865 L 547 869 L 549 872 L 551 876 L 552 878 L 555 878 L 555 883 L 557 885 L 557 887 L 554 890 L 554 892 L 555 890 L 556 903 L 556 905 L 554 905 L 554 907 L 551 913 L 548 917 L 547 919 L 546 923 L 543 927 L 542 929 L 541 934 L 538 939 L 539 943 L 537 944 L 535 942 L 534 939 L 533 937 L 535 934 L 535 932 L 538 927 L 539 924 L 540 921 L 540 918 L 541 915 L 543 910 L 547 903 L 547 899 L 549 897 L 550 902 L 551 895 L 551 893 L 551 890 L 548 887 L 548 882 L 546 880 L 546 876 L 545 874 L 541 870 L 541 867 L 539 864 L 538 856 L 539 854 L 538 849 L 540 842 Z" fill="none" stroke="none" /><path d="M 443 838 L 444 842 L 439 851 L 437 859 L 435 861 L 434 857 L 436 851 L 438 846 Z" fill="none" stroke="none" /><path d="M 622 836 L 626 840 L 625 843 L 623 841 L 623 840 L 621 838 Z" fill="none" stroke="none" /><path d="M 632 836 L 633 838 L 634 841 L 634 846 L 635 850 L 637 853 L 636 856 L 634 854 L 634 852 L 632 850 L 631 848 L 631 843 L 629 837 Z" fill="none" stroke="none" /><path d="M 583 834 L 585 836 L 586 839 L 587 843 L 587 848 L 589 853 L 590 858 L 590 864 L 592 870 L 592 882 L 590 890 L 591 893 L 590 898 L 589 901 L 588 904 L 585 909 L 580 914 L 579 917 L 576 920 L 575 918 L 576 916 L 578 914 L 579 912 L 580 910 L 581 905 L 585 898 L 586 901 L 585 904 L 584 906 L 583 908 L 584 906 L 586 902 L 587 899 L 587 895 L 586 899 L 585 893 L 586 877 L 587 876 L 588 874 L 589 882 L 588 883 L 588 886 L 589 884 L 589 874 L 588 864 L 587 858 L 586 853 L 585 852 L 585 849 L 585 851 L 584 852 L 584 869 L 583 875 L 581 883 L 580 887 L 578 890 L 577 893 L 579 894 L 579 897 L 578 901 L 575 910 L 572 916 L 570 919 L 563 922 L 567 919 L 567 915 L 566 914 L 566 911 L 567 907 L 569 903 L 570 901 L 568 904 L 568 905 L 566 908 L 565 911 L 565 915 L 562 914 L 563 911 L 563 908 L 568 898 L 570 896 L 571 898 L 573 899 L 573 902 L 572 905 L 571 907 L 570 909 L 571 907 L 573 903 L 573 898 L 570 896 L 571 894 L 576 885 L 580 873 L 581 867 L 582 856 L 581 850 L 581 848 Z" fill="none" stroke="none" /><path d="M 579 833 L 580 837 L 579 851 L 577 849 L 576 834 Z" fill="none" stroke="none" /><path d="M 496 832 L 497 835 L 496 838 L 493 843 L 491 841 L 491 839 L 492 837 L 493 835 Z" fill="none" stroke="none" /><path d="M 451 831 L 452 835 L 451 839 L 450 842 L 449 845 L 448 847 L 444 848 L 445 845 L 447 842 L 448 839 L 447 836 L 448 834 L 450 833 Z" fill="none" stroke="none" /><path d="M 633 830 L 635 837 L 634 840 L 633 838 L 632 837 L 631 834 Z" fill="none" stroke="none" /><path d="M 613 830 L 620 837 L 623 841 L 626 846 L 629 852 L 628 855 L 625 853 L 623 847 L 622 845 L 620 842 L 617 840 L 614 836 L 612 832 Z" fill="none" stroke="none" /><path d="M 601 830 L 603 834 L 607 843 L 606 854 L 602 862 L 601 857 L 600 855 L 601 852 L 600 851 L 601 847 L 603 851 L 603 854 L 604 852 L 603 850 L 601 847 L 600 842 L 599 838 L 600 835 Z" fill="none" stroke="none" /><path d="M 520 829 L 521 835 L 520 837 L 518 839 L 518 840 L 514 840 L 515 838 L 517 835 L 517 833 L 518 831 Z" fill="none" stroke="none" /><path d="M 447 828 L 448 830 L 444 836 L 441 839 L 440 837 L 444 831 Z" fill="none" stroke="none" /><path d="M 461 827 L 462 829 L 465 830 L 463 833 L 462 846 L 462 848 L 463 862 L 461 866 L 461 870 L 460 871 L 460 874 L 461 869 L 462 865 L 464 863 L 465 868 L 468 874 L 469 877 L 468 881 L 466 879 L 466 876 L 465 875 L 464 872 L 465 876 L 466 877 L 465 880 L 463 880 L 465 880 L 467 883 L 470 885 L 468 886 L 466 888 L 466 892 L 467 889 L 469 887 L 471 893 L 470 896 L 467 896 L 468 899 L 471 898 L 471 902 L 469 904 L 469 906 L 470 909 L 473 916 L 473 920 L 475 927 L 477 931 L 480 937 L 482 944 L 475 937 L 476 935 L 475 933 L 471 925 L 470 922 L 469 919 L 471 918 L 470 916 L 468 912 L 465 906 L 461 901 L 454 887 L 453 881 L 453 873 L 454 867 L 457 861 L 456 858 L 457 851 L 458 847 L 460 844 L 458 842 L 459 838 L 461 834 L 458 832 Z" fill="none" stroke="none" /><path d="M 601 823 L 602 826 L 603 828 L 609 837 L 610 839 L 611 841 L 611 844 L 613 847 L 614 850 L 615 854 L 618 869 L 619 875 L 620 884 L 620 892 L 616 895 L 616 892 L 615 889 L 614 886 L 612 881 L 607 873 L 607 871 L 608 870 L 608 868 L 606 857 L 606 851 L 606 849 L 608 848 L 609 845 L 606 841 L 606 839 L 605 837 L 602 833 L 601 830 L 600 827 Z" fill="none" stroke="none" /><path d="M 582 823 L 584 825 L 584 832 L 582 834 L 579 831 L 578 829 L 580 827 L 580 825 Z" fill="none" stroke="none" /><path d="M 572 818 L 574 823 L 574 827 L 576 831 L 575 840 L 574 833 L 573 842 L 575 844 L 576 846 L 577 848 L 578 852 L 578 866 L 574 870 L 574 868 L 575 867 L 575 865 L 575 858 L 575 854 L 574 850 L 573 849 L 572 848 L 571 840 L 571 824 Z" fill="none" stroke="none" /><path d="M 507 817 L 508 819 L 507 821 L 503 827 L 502 823 L 503 821 Z" fill="none" stroke="none" /><path d="M 540 816 L 541 821 L 540 833 L 539 836 L 537 839 L 537 843 L 536 846 L 534 847 L 535 853 L 533 866 L 532 866 L 529 866 L 529 862 L 530 854 L 532 844 L 532 842 L 535 837 L 536 834 L 536 831 L 537 830 L 537 827 L 537 830 L 536 833 L 535 834 L 534 836 L 533 832 L 534 830 L 533 832 L 534 837 L 533 839 L 531 841 L 530 838 L 531 836 L 530 838 L 529 839 L 529 841 L 528 842 L 528 844 L 529 842 L 530 840 L 531 843 L 528 848 L 527 851 L 526 857 L 523 863 L 522 866 L 522 879 L 521 881 L 518 881 L 518 876 L 517 870 L 520 865 L 520 858 L 522 855 L 522 852 L 523 850 L 521 851 L 521 855 L 519 856 L 519 864 L 518 868 L 516 871 L 516 894 L 517 892 L 519 894 L 520 897 L 520 899 L 518 901 L 516 898 L 519 902 L 518 913 L 517 910 L 517 907 L 517 905 L 516 908 L 515 905 L 515 907 L 517 910 L 519 916 L 516 918 L 516 915 L 512 905 L 512 900 L 511 899 L 512 894 L 513 896 L 514 897 L 514 903 L 514 895 L 512 891 L 511 887 L 511 881 L 512 875 L 513 870 L 514 866 L 515 861 L 517 858 L 518 850 L 519 847 L 522 843 L 525 838 L 530 831 L 534 827 L 535 825 L 536 823 L 536 821 L 537 819 Z" fill="none" stroke="none" /><path d="M 456 816 L 459 817 L 459 821 L 457 824 L 456 828 L 456 821 L 453 820 L 454 818 Z" fill="none" stroke="none" /><path d="M 467 812 L 468 815 L 467 818 L 464 828 L 461 827 L 461 825 L 463 821 L 464 816 Z" fill="none" stroke="none" /><path d="M 649 809 L 650 812 L 651 821 L 650 826 L 648 822 L 647 819 L 646 811 Z" fill="none" stroke="none" /><path d="M 629 808 L 629 814 L 631 821 L 631 827 L 632 828 L 631 834 L 629 832 L 628 829 L 627 823 L 626 815 Z" fill="none" stroke="none" /><path d="M 585 807 L 586 814 L 584 816 L 583 809 Z" fill="none" stroke="none" /><path d="M 468 803 L 469 806 L 467 811 L 465 813 L 459 828 L 458 831 L 458 836 L 457 839 L 455 842 L 455 845 L 453 849 L 454 853 L 452 856 L 451 855 L 449 861 L 448 863 L 445 863 L 445 861 L 449 853 L 449 849 L 453 841 L 454 838 L 455 835 L 455 832 L 456 829 L 457 826 L 463 812 Z" fill="none" stroke="none" /><path d="M 547 803 L 547 811 L 543 813 Z" fill="none" stroke="none" /><path d="M 517 801 L 518 804 L 516 807 L 512 814 L 512 817 L 510 821 L 505 830 L 504 832 L 505 830 L 507 827 L 508 830 L 507 831 L 506 833 L 508 834 L 506 836 L 505 838 L 504 843 L 501 846 L 501 849 L 497 858 L 497 860 L 497 868 L 498 870 L 497 873 L 496 875 L 494 877 L 493 882 L 493 902 L 494 908 L 495 912 L 498 918 L 500 921 L 501 918 L 502 916 L 497 910 L 494 901 L 494 899 L 498 892 L 498 879 L 499 873 L 500 868 L 501 863 L 502 859 L 506 859 L 505 864 L 503 870 L 502 876 L 502 885 L 501 886 L 501 894 L 502 892 L 501 891 L 502 889 L 504 889 L 504 881 L 504 879 L 505 871 L 506 869 L 508 866 L 505 867 L 506 863 L 507 858 L 508 855 L 510 850 L 514 845 L 517 843 L 517 845 L 515 848 L 514 852 L 513 850 L 513 852 L 514 854 L 512 854 L 512 856 L 512 860 L 510 860 L 512 863 L 511 867 L 508 870 L 507 878 L 507 880 L 507 888 L 509 891 L 509 895 L 511 899 L 510 902 L 510 905 L 512 905 L 512 911 L 514 916 L 514 921 L 512 922 L 513 924 L 515 927 L 516 930 L 517 933 L 517 936 L 514 941 L 513 939 L 507 933 L 505 930 L 505 929 L 502 928 L 500 926 L 498 923 L 496 920 L 493 915 L 491 910 L 490 905 L 489 895 L 489 887 L 490 879 L 488 879 L 487 881 L 486 878 L 485 883 L 486 885 L 484 889 L 482 888 L 481 884 L 480 899 L 478 897 L 478 888 L 476 890 L 473 889 L 472 886 L 471 881 L 473 877 L 475 877 L 476 869 L 477 866 L 478 864 L 480 862 L 481 860 L 480 859 L 482 854 L 483 852 L 484 850 L 486 848 L 487 846 L 488 844 L 491 842 L 492 842 L 493 844 L 491 848 L 489 850 L 488 852 L 487 856 L 484 860 L 483 862 L 481 867 L 479 872 L 478 875 L 478 878 L 481 876 L 482 879 L 481 880 L 481 882 L 482 880 L 482 873 L 483 869 L 484 866 L 486 864 L 486 862 L 489 858 L 491 854 L 492 849 L 494 847 L 494 845 L 496 844 L 499 838 L 499 836 L 498 830 L 500 828 L 503 829 L 504 827 L 508 819 L 509 817 L 507 816 L 509 814 L 512 809 L 512 807 L 513 805 L 516 803 Z" fill="none" stroke="none" /><path d="M 466 801 L 466 804 L 466 806 L 462 813 L 461 810 L 463 805 L 464 803 Z" fill="none" stroke="none" /><path d="M 559 797 L 561 799 L 562 801 L 563 806 L 564 813 L 565 820 L 565 827 L 566 828 L 566 835 L 567 836 L 567 838 L 567 835 L 566 834 L 566 821 L 565 814 L 564 813 L 565 808 L 567 811 L 568 813 L 569 817 L 570 822 L 570 826 L 568 826 L 568 828 L 571 829 L 571 836 L 569 836 L 570 846 L 568 847 L 571 849 L 571 852 L 573 854 L 573 872 L 571 875 L 571 878 L 569 883 L 566 888 L 565 893 L 564 895 L 562 897 L 561 889 L 560 884 L 559 880 L 558 877 L 557 874 L 554 868 L 551 859 L 551 856 L 553 839 L 554 841 L 557 842 L 558 850 L 559 858 L 559 853 L 558 852 L 558 841 L 557 838 L 555 836 L 555 833 L 558 830 L 560 832 L 563 839 L 564 842 L 564 846 L 566 849 L 567 857 L 567 869 L 567 867 L 569 865 L 570 869 L 569 871 L 567 873 L 566 876 L 565 880 L 565 884 L 563 889 L 564 887 L 565 885 L 566 882 L 567 879 L 567 876 L 568 873 L 571 868 L 571 864 L 570 854 L 569 865 L 567 863 L 568 859 L 567 851 L 565 840 L 563 835 L 563 824 L 561 812 L 560 806 L 558 803 Z" fill="none" stroke="none" /><path d="M 569 794 L 571 798 L 572 804 L 571 807 L 570 805 L 569 804 L 569 799 L 568 798 Z" fill="none" stroke="none" /><path d="M 593 793 L 594 799 L 592 804 L 591 810 L 591 825 L 592 830 L 594 834 L 595 839 L 593 844 L 590 841 L 589 839 L 588 837 L 587 834 L 586 830 L 586 820 L 587 814 L 588 809 L 591 797 Z" fill="none" stroke="none" /><path d="M 522 792 L 523 796 L 522 800 L 521 802 L 518 801 L 519 797 Z" fill="none" stroke="none" /><path d="M 532 788 L 533 791 L 532 792 L 532 795 L 530 798 L 530 802 L 529 804 L 527 806 L 526 803 L 527 802 L 527 799 L 527 802 L 525 806 L 525 810 L 522 815 L 521 821 L 520 824 L 517 831 L 508 848 L 508 851 L 507 854 L 505 857 L 503 857 L 501 856 L 500 852 L 503 844 L 504 843 L 505 841 L 506 845 L 504 848 L 504 851 L 503 852 L 502 854 L 503 852 L 505 852 L 506 848 L 508 839 L 512 827 L 514 822 L 516 817 L 518 815 L 519 813 L 519 809 L 521 806 L 522 803 L 522 799 L 524 794 L 525 800 L 528 797 L 528 794 L 530 790 Z" fill="none" stroke="none" /><path d="M 540 782 L 542 784 L 542 786 L 540 791 L 540 793 L 541 794 L 541 796 L 540 797 L 540 799 L 541 797 L 542 806 L 541 811 L 540 813 L 538 815 L 537 812 L 538 811 L 538 808 L 538 811 L 537 812 L 536 814 L 535 811 L 535 807 L 535 813 L 533 819 L 532 823 L 531 825 L 528 829 L 524 828 L 524 826 L 525 824 L 524 826 L 524 829 L 522 831 L 521 825 L 522 822 L 527 820 L 529 823 L 528 825 L 529 823 L 529 820 L 530 819 L 531 815 L 532 809 L 530 808 L 531 805 L 534 800 L 535 795 L 537 792 L 539 789 L 536 788 L 539 785 Z" fill="none" stroke="none" /><path d="M 586 779 L 588 781 L 589 783 L 590 787 L 590 792 L 589 794 L 589 798 L 588 802 L 584 805 L 584 798 Z" fill="none" stroke="none" /><path d="M 527 778 L 528 781 L 527 783 L 525 785 L 524 783 Z" fill="none" stroke="none" /><path d="M 471 777 L 472 788 L 470 792 L 468 791 L 468 795 L 467 798 L 461 808 L 460 813 L 458 815 L 455 814 L 455 812 L 459 806 L 462 800 L 468 785 L 470 784 L 469 781 L 470 780 Z" fill="none" stroke="none" /><path d="M 558 773 L 559 777 L 562 777 L 561 784 L 560 782 L 557 783 L 556 775 Z" fill="none" stroke="none" /><path d="M 539 773 L 537 786 L 535 784 L 535 782 L 535 780 Z" fill="none" stroke="none" /><path d="M 533 768 L 536 768 L 536 770 L 534 773 L 534 779 L 533 783 L 532 786 L 531 788 L 529 790 L 528 792 L 527 795 L 526 794 L 525 795 L 524 791 L 527 786 L 528 783 L 529 780 L 529 773 L 532 771 Z" fill="none" stroke="none" /><path d="M 472 767 L 473 774 L 471 776 L 470 770 L 471 769 Z" fill="none" stroke="none" /><path d="M 572 757 L 574 759 L 575 762 L 575 768 L 577 773 L 578 779 L 579 805 L 579 808 L 577 810 L 575 808 L 576 803 L 575 802 L 576 796 L 574 787 L 574 777 L 573 768 L 571 759 Z" fill="none" stroke="none" /><path d="M 563 753 L 565 755 L 566 758 L 566 760 L 567 763 L 568 765 L 571 766 L 572 770 L 573 783 L 573 795 L 575 805 L 574 808 L 573 806 L 572 805 L 571 801 L 571 795 L 570 793 L 568 792 L 567 783 L 567 773 L 566 768 L 565 763 L 564 759 L 563 756 Z" fill="none" stroke="none" /><path d="M 537 750 L 539 752 L 540 759 L 536 760 Z" fill="none" stroke="none" /><path d="M 535 745 L 535 766 L 534 766 L 533 767 L 533 768 L 531 770 L 530 766 L 532 762 L 533 758 L 533 747 Z" fill="none" stroke="none" /><path d="M 598 742 L 600 744 L 602 747 L 603 752 L 603 759 L 601 766 L 600 786 L 600 806 L 601 807 L 601 811 L 607 816 L 605 813 L 603 810 L 602 807 L 601 800 L 601 790 L 603 781 L 604 761 L 606 766 L 606 773 L 607 781 L 609 788 L 609 812 L 610 816 L 612 819 L 610 822 L 608 820 L 604 819 L 605 821 L 605 822 L 607 824 L 609 823 L 614 824 L 618 828 L 620 831 L 621 837 L 613 829 L 612 831 L 610 828 L 610 830 L 611 832 L 612 834 L 614 837 L 616 840 L 617 841 L 618 841 L 619 842 L 619 843 L 621 845 L 622 848 L 623 851 L 624 859 L 624 870 L 625 874 L 626 877 L 629 881 L 629 885 L 628 887 L 625 887 L 624 885 L 622 880 L 623 872 L 622 870 L 622 880 L 623 885 L 625 887 L 626 889 L 626 891 L 625 896 L 624 900 L 623 903 L 622 906 L 619 913 L 618 915 L 617 917 L 615 920 L 613 922 L 612 919 L 615 914 L 616 911 L 617 906 L 617 898 L 620 895 L 621 890 L 621 885 L 620 877 L 619 870 L 618 863 L 617 857 L 615 850 L 613 847 L 613 844 L 612 841 L 611 839 L 610 837 L 607 832 L 604 829 L 603 827 L 602 825 L 601 822 L 600 818 L 599 814 L 599 810 L 600 822 L 600 830 L 597 836 L 595 834 L 594 831 L 593 828 L 592 820 L 592 816 L 593 812 L 595 809 L 595 794 L 597 790 L 598 785 L 598 780 L 599 779 L 599 775 L 599 778 L 598 779 L 598 785 L 597 790 L 595 792 L 594 786 L 596 776 L 597 771 L 599 767 L 600 758 L 600 752 L 599 747 L 597 744 Z" fill="none" stroke="none" /><path d="M 458 742 L 459 748 L 460 749 L 460 754 L 460 758 L 459 759 L 460 764 L 458 767 L 458 770 L 457 773 L 455 778 L 452 784 L 450 786 L 450 783 L 450 781 L 452 778 L 455 769 L 456 764 L 457 759 Z" fill="none" stroke="none" /><path d="M 648 732 L 649 734 L 649 736 L 644 743 L 643 746 L 642 751 L 639 755 L 638 761 L 637 766 L 636 773 L 636 776 L 637 780 L 639 787 L 645 803 L 645 810 L 647 815 L 647 821 L 649 824 L 649 826 L 650 827 L 651 829 L 651 825 L 652 827 L 653 828 L 653 831 L 654 834 L 656 839 L 659 844 L 660 849 L 662 851 L 661 848 L 659 843 L 656 838 L 655 835 L 655 832 L 652 826 L 653 821 L 656 825 L 660 832 L 660 838 L 658 836 L 659 838 L 662 843 L 664 848 L 665 851 L 666 854 L 667 858 L 668 863 L 668 865 L 668 867 L 667 882 L 667 884 L 665 886 L 665 897 L 662 907 L 663 913 L 662 916 L 661 919 L 659 924 L 658 926 L 656 927 L 654 925 L 654 923 L 657 919 L 658 918 L 658 914 L 660 909 L 661 904 L 662 899 L 663 892 L 664 880 L 664 875 L 663 874 L 663 871 L 663 881 L 662 882 L 662 894 L 661 899 L 659 903 L 658 898 L 660 893 L 660 887 L 660 890 L 659 891 L 657 899 L 656 904 L 657 910 L 656 913 L 655 911 L 656 913 L 656 915 L 653 920 L 652 925 L 642 944 L 638 949 L 636 951 L 635 948 L 638 943 L 642 938 L 646 931 L 647 929 L 651 920 L 652 916 L 653 911 L 654 904 L 655 896 L 654 891 L 655 887 L 657 887 L 657 868 L 656 857 L 655 856 L 655 852 L 655 856 L 654 857 L 653 862 L 652 860 L 651 859 L 651 851 L 650 845 L 649 840 L 646 833 L 645 831 L 643 829 L 642 827 L 641 825 L 640 821 L 639 817 L 639 796 L 638 791 L 637 790 L 637 788 L 637 794 L 638 795 L 639 814 L 636 814 L 634 811 L 635 817 L 636 820 L 640 829 L 643 833 L 645 838 L 646 844 L 646 849 L 647 850 L 644 854 L 644 852 L 645 856 L 644 858 L 646 856 L 648 858 L 648 860 L 646 861 L 648 864 L 649 868 L 649 873 L 648 875 L 645 875 L 645 868 L 645 876 L 647 884 L 647 886 L 646 888 L 643 888 L 643 879 L 642 872 L 640 869 L 640 865 L 637 862 L 637 857 L 639 859 L 640 861 L 639 859 L 638 858 L 638 855 L 636 851 L 637 847 L 638 849 L 639 851 L 638 849 L 640 844 L 642 847 L 641 845 L 641 843 L 637 842 L 636 840 L 635 837 L 634 831 L 633 826 L 632 819 L 631 810 L 630 813 L 629 808 L 632 806 L 634 808 L 633 806 L 633 804 L 630 804 L 631 801 L 633 802 L 632 796 L 633 787 L 634 786 L 634 780 L 633 782 L 632 789 L 632 796 L 630 799 L 630 802 L 629 804 L 626 804 L 626 797 L 628 784 L 629 778 L 630 774 L 634 762 L 636 759 L 637 757 L 634 760 L 631 766 L 628 775 L 627 779 L 626 785 L 625 791 L 625 807 L 623 811 L 622 789 L 623 784 L 626 776 L 625 774 L 628 769 L 628 767 L 629 766 L 629 764 L 628 768 L 627 770 L 624 773 L 623 775 L 622 777 L 621 780 L 620 783 L 619 787 L 618 795 L 619 805 L 620 791 L 621 811 L 622 819 L 621 826 L 620 823 L 619 816 L 619 809 L 619 820 L 620 825 L 619 829 L 619 828 L 614 822 L 613 816 L 612 810 L 612 795 L 613 788 L 614 784 L 615 781 L 618 773 L 621 766 L 624 762 L 625 765 L 624 766 L 624 768 L 625 765 L 627 761 L 628 758 L 632 754 L 633 752 L 633 749 L 635 746 L 637 742 L 640 737 Z" fill="none" stroke="none" /><path d="M 536 731 L 538 733 L 538 737 L 539 740 L 542 747 L 548 757 L 549 760 L 550 763 L 551 768 L 552 775 L 552 785 L 554 785 L 554 791 L 555 792 L 555 796 L 555 790 L 554 789 L 553 782 L 553 778 L 555 776 L 556 783 L 558 788 L 558 804 L 560 809 L 561 816 L 562 822 L 563 831 L 562 834 L 561 832 L 560 831 L 560 824 L 559 820 L 558 818 L 558 820 L 559 821 L 558 830 L 557 822 L 556 830 L 554 832 L 553 822 L 553 820 L 552 826 L 552 830 L 553 839 L 551 841 L 552 853 L 551 856 L 549 854 L 548 852 L 546 843 L 546 839 L 548 820 L 549 799 L 549 789 L 547 784 L 547 778 L 547 784 L 549 789 L 546 793 L 546 788 L 544 784 L 543 771 L 542 773 L 540 768 L 539 755 L 540 748 L 542 752 L 543 756 L 543 769 L 543 764 L 545 760 L 547 766 L 547 764 L 546 763 L 546 760 L 544 761 L 543 757 L 545 757 L 544 755 L 542 753 L 542 751 L 541 749 L 539 747 L 538 745 L 535 738 Z" fill="none" stroke="none" /><path d="M 550 727 L 553 733 L 554 736 L 554 739 L 556 744 L 560 751 L 561 754 L 562 758 L 562 764 L 564 766 L 565 770 L 565 781 L 566 791 L 567 798 L 568 802 L 570 807 L 574 816 L 577 820 L 578 822 L 578 824 L 576 826 L 575 824 L 574 822 L 574 820 L 567 807 L 564 800 L 563 795 L 563 787 L 562 777 L 560 775 L 559 773 L 559 768 L 560 767 L 560 763 L 559 762 L 559 760 L 559 762 L 560 763 L 559 768 L 558 766 L 557 765 L 556 757 L 554 753 L 554 749 L 554 753 L 557 762 L 556 767 L 554 765 L 553 761 L 551 752 L 551 746 L 549 743 L 548 729 Z" fill="none" stroke="none" /><path d="M 550 704 L 552 708 L 553 713 L 553 716 L 551 714 L 550 711 L 549 708 Z" fill="none" stroke="none" /><path d="M 522 705 L 524 704 L 526 706 L 526 710 L 527 714 L 528 715 L 528 717 L 524 718 L 523 714 Z" fill="none" stroke="none" /><path d="M 552 673 L 555 676 L 558 682 L 564 689 L 566 692 L 569 699 L 575 706 L 576 709 L 591 730 L 594 735 L 594 739 L 592 737 L 590 734 L 590 733 L 588 731 L 589 733 L 591 735 L 597 746 L 598 752 L 598 763 L 597 768 L 595 777 L 594 781 L 592 785 L 590 783 L 589 777 L 588 775 L 586 773 L 585 771 L 584 767 L 585 761 L 588 766 L 588 768 L 590 772 L 591 774 L 590 772 L 589 770 L 587 765 L 584 758 L 583 751 L 582 750 L 583 747 L 582 743 L 581 745 L 580 743 L 579 741 L 579 743 L 580 744 L 581 749 L 581 754 L 583 759 L 582 763 L 580 761 L 579 759 L 576 751 L 575 744 L 574 741 L 573 738 L 571 736 L 572 733 L 574 735 L 569 730 L 568 728 L 566 723 L 565 721 L 562 714 L 555 697 L 554 694 L 556 693 L 556 691 L 555 690 L 554 686 L 554 682 L 552 676 Z" fill="none" stroke="none" /><path d="M 541 639 L 542 642 L 541 646 L 539 644 L 538 640 Z" fill="none" stroke="none" /><path d="M 534 629 L 534 634 L 535 638 L 536 641 L 538 644 L 538 647 L 540 652 L 543 659 L 545 663 L 549 669 L 550 671 L 551 676 L 551 681 L 552 685 L 553 689 L 555 693 L 553 693 L 554 696 L 556 700 L 557 707 L 558 710 L 559 713 L 562 721 L 565 726 L 566 729 L 567 735 L 568 738 L 572 745 L 574 750 L 574 753 L 576 758 L 582 769 L 583 772 L 583 790 L 581 805 L 581 807 L 582 813 L 581 814 L 580 821 L 578 819 L 578 815 L 576 810 L 579 809 L 578 801 L 579 797 L 578 795 L 579 785 L 578 777 L 577 772 L 575 767 L 575 761 L 574 759 L 571 755 L 570 752 L 568 746 L 564 732 L 563 730 L 562 728 L 562 731 L 564 735 L 564 739 L 565 743 L 568 753 L 569 756 L 571 759 L 571 762 L 571 765 L 567 761 L 566 759 L 563 751 L 559 740 L 558 737 L 557 734 L 556 730 L 556 725 L 555 721 L 554 720 L 555 717 L 556 719 L 557 720 L 559 727 L 559 731 L 561 737 L 562 738 L 562 740 L 562 737 L 560 733 L 559 725 L 557 720 L 551 707 L 550 704 L 549 700 L 550 696 L 552 699 L 552 697 L 551 696 L 551 693 L 549 690 L 547 682 L 547 679 L 548 678 L 548 675 L 547 672 L 545 670 L 547 674 L 547 678 L 546 679 L 546 682 L 548 688 L 549 696 L 548 700 L 547 697 L 547 700 L 548 701 L 549 705 L 548 707 L 550 711 L 550 715 L 551 718 L 552 721 L 555 726 L 556 734 L 557 737 L 559 740 L 561 746 L 560 749 L 559 747 L 558 746 L 556 741 L 552 728 L 549 720 L 546 715 L 542 704 L 541 700 L 540 696 L 539 690 L 538 682 L 538 674 L 537 668 L 536 667 L 536 665 L 536 674 L 537 675 L 536 687 L 537 692 L 538 696 L 539 700 L 543 712 L 546 717 L 545 720 L 543 719 L 545 721 L 546 721 L 548 723 L 548 726 L 546 738 L 544 736 L 544 732 L 540 721 L 539 717 L 539 710 L 538 705 L 536 702 L 535 698 L 534 693 L 533 688 L 532 681 L 531 669 L 531 680 L 533 689 L 532 699 L 532 702 L 533 703 L 533 707 L 534 711 L 536 717 L 537 718 L 537 720 L 538 716 L 539 723 L 540 727 L 541 731 L 542 734 L 543 737 L 547 744 L 547 747 L 550 752 L 548 753 L 546 751 L 542 744 L 540 739 L 539 736 L 538 733 L 537 726 L 536 722 L 531 713 L 530 710 L 527 700 L 526 693 L 528 689 L 527 671 L 526 693 L 524 684 L 524 662 L 525 655 L 526 651 L 529 648 L 529 646 L 528 645 L 528 643 L 529 638 L 530 633 Z" fill="none" stroke="none" /><path d="M 571 575 L 570 577 L 569 579 L 568 584 L 569 589 L 569 585 L 570 584 L 570 578 L 571 577 Z" fill="#c8c4b4" stroke="none" /><path d="M 948 554 L 946 555 L 942 556 L 940 557 L 938 559 L 936 559 L 930 562 L 927 563 L 926 566 L 919 568 L 915 569 L 909 572 L 902 578 L 900 579 L 898 578 L 896 580 L 893 581 L 888 582 L 878 587 L 876 590 L 870 592 L 868 593 L 866 594 L 853 602 L 851 603 L 849 603 L 847 604 L 844 607 L 840 607 L 837 611 L 832 615 L 830 616 L 829 614 L 824 616 L 819 620 L 815 622 L 815 625 L 814 625 L 811 625 L 813 623 L 811 624 L 809 625 L 807 627 L 804 629 L 806 630 L 804 632 L 799 634 L 794 636 L 791 638 L 789 640 L 788 643 L 786 645 L 782 647 L 774 650 L 774 652 L 777 651 L 784 647 L 790 645 L 792 644 L 794 643 L 799 639 L 810 634 L 812 632 L 816 632 L 812 636 L 809 638 L 791 648 L 781 653 L 784 652 L 796 646 L 805 641 L 812 637 L 815 635 L 817 632 L 815 631 L 817 629 L 822 627 L 828 623 L 832 622 L 834 621 L 837 619 L 841 620 L 844 620 L 844 619 L 847 617 L 847 619 L 849 618 L 851 617 L 850 615 L 852 614 L 853 613 L 855 613 L 860 609 L 862 609 L 865 607 L 867 605 L 867 603 L 868 601 L 871 604 L 872 602 L 874 603 L 876 601 L 873 598 L 875 596 L 880 597 L 880 599 L 883 597 L 888 595 L 891 592 L 893 592 L 896 590 L 904 586 L 907 584 L 908 581 L 910 580 L 912 579 L 916 578 L 919 575 L 920 572 L 925 572 L 925 570 L 928 567 L 930 566 L 932 565 L 934 565 L 936 564 L 938 563 L 945 559 L 948 557 L 951 554 L 951 552 Z" fill="#c8c4b4" stroke="none" /><path d="M 827 615 L 827 618 L 826 618 L 824 620 L 820 622 L 820 619 L 821 619 L 823 617 L 825 616 Z" fill="none" stroke="none" /><path d="M 842 611 L 846 612 L 844 614 L 843 614 L 839 614 Z" fill="none" stroke="none" /><path d="M 859 602 L 862 603 L 859 606 L 856 605 Z" fill="none" stroke="none" /><path d="M 888 586 L 892 587 L 889 590 L 886 591 L 882 590 L 884 588 L 886 588 Z" fill="none" stroke="none" /><path d="M 812 550 L 811 550 L 803 557 L 799 558 L 794 563 L 788 567 L 785 569 L 783 569 L 781 570 L 777 574 L 776 573 L 773 575 L 773 577 L 770 579 L 768 579 L 766 580 L 762 584 L 760 583 L 756 587 L 757 588 L 751 593 L 752 595 L 749 597 L 749 595 L 743 600 L 749 597 L 744 602 L 737 606 L 737 608 L 739 606 L 740 606 L 743 603 L 746 601 L 748 601 L 750 599 L 750 598 L 752 596 L 755 596 L 758 594 L 767 585 L 772 581 L 775 579 L 777 580 L 781 576 L 782 576 L 790 568 L 799 562 L 802 558 L 806 556 L 811 551 L 812 551 L 815 548 Z" fill="#c8c4b4" stroke="none" /><path d="M 964 545 L 962 547 L 959 549 L 957 549 L 955 550 L 954 553 L 958 550 L 960 549 L 962 549 L 965 547 Z" fill="#c8c4b4" stroke="none" /><path d="M 133 545 L 137 545 L 138 546 L 140 547 L 140 550 L 142 551 L 145 551 L 147 552 L 150 555 L 158 559 L 161 563 L 164 562 L 167 565 L 171 566 L 173 567 L 176 569 L 181 574 L 183 574 L 186 576 L 187 575 L 190 576 L 193 579 L 193 581 L 195 582 L 200 584 L 205 587 L 215 594 L 217 594 L 223 600 L 229 603 L 232 603 L 234 604 L 237 607 L 240 608 L 241 609 L 241 610 L 242 611 L 245 613 L 251 617 L 256 620 L 259 622 L 262 622 L 266 626 L 269 628 L 274 630 L 277 633 L 280 635 L 282 636 L 284 636 L 288 639 L 289 639 L 292 642 L 296 642 L 301 644 L 305 646 L 307 647 L 308 648 L 308 649 L 309 650 L 311 651 L 313 651 L 311 648 L 309 647 L 308 648 L 306 645 L 305 645 L 303 643 L 301 643 L 296 640 L 292 636 L 295 635 L 293 633 L 290 632 L 290 628 L 292 629 L 295 632 L 297 632 L 295 630 L 290 627 L 286 629 L 283 628 L 282 626 L 279 623 L 275 622 L 265 616 L 262 614 L 261 610 L 263 610 L 268 613 L 271 616 L 274 618 L 277 619 L 279 620 L 277 619 L 274 616 L 264 610 L 261 607 L 263 606 L 260 604 L 259 606 L 257 605 L 255 603 L 246 599 L 242 596 L 245 594 L 243 593 L 241 593 L 238 593 L 238 590 L 236 589 L 233 589 L 229 586 L 227 586 L 224 584 L 227 586 L 232 589 L 237 590 L 239 592 L 237 594 L 235 594 L 232 591 L 224 586 L 222 585 L 219 584 L 216 584 L 220 586 L 223 589 L 218 589 L 215 586 L 210 585 L 208 583 L 212 582 L 214 584 L 213 582 L 212 582 L 210 580 L 203 576 L 201 575 L 199 574 L 197 574 L 195 573 L 197 574 L 194 576 L 192 574 L 193 570 L 191 570 L 187 567 L 183 566 L 181 564 L 178 564 L 176 562 L 173 562 L 171 564 L 169 561 L 167 560 L 168 558 L 165 557 L 162 555 L 160 552 L 156 550 L 155 551 L 152 549 L 147 550 L 145 550 L 140 545 L 138 545 L 136 543 L 134 542 Z" fill="#c8c4b4" stroke="none" /><path d="M 254 605 L 258 607 L 255 609 L 253 607 Z" fill="none" stroke="none" /><path d="M 225 591 L 227 592 L 229 594 L 233 595 L 233 596 L 236 596 L 238 597 L 241 600 L 244 600 L 244 603 L 248 603 L 249 604 L 251 606 L 252 609 L 254 611 L 256 611 L 257 615 L 255 615 L 250 612 L 247 610 L 242 605 L 238 602 L 227 598 L 223 594 Z" fill="none" stroke="none" /><path d="M 182 566 L 186 569 L 188 569 L 190 571 L 188 574 L 186 572 L 183 571 L 180 568 Z" fill="none" stroke="none" /><path d="M 162 555 L 164 557 L 165 559 L 163 560 L 160 557 Z" fill="none" stroke="none" /><path d="M 276 537 L 279 539 L 286 544 L 289 545 L 291 547 L 291 548 L 292 549 L 295 550 L 299 553 L 303 556 L 307 559 L 308 560 L 315 568 L 320 571 L 325 576 L 333 586 L 336 588 L 339 589 L 347 596 L 350 597 L 357 602 L 355 600 L 352 597 L 350 593 L 347 590 L 344 590 L 341 587 L 341 585 L 337 579 L 335 578 L 333 578 L 331 574 L 326 572 L 324 570 L 324 568 L 321 566 L 317 563 L 314 561 L 310 560 L 307 558 L 300 551 L 297 551 L 295 549 L 294 547 L 293 547 L 291 545 L 285 542 L 280 538 L 277 536 Z" fill="#c8c4b4" stroke="none" /><path d="M 574 535 L 573 539 L 575 544 L 575 558 L 574 559 L 574 565 L 576 563 L 576 561 L 577 559 L 576 545 L 575 540 Z" fill="#c8c4b4" stroke="none" /><path d="M 551 498 L 550 499 L 550 506 L 549 507 L 548 515 L 550 533 L 551 524 L 551 519 L 550 517 L 550 506 L 552 500 L 552 495 Z" fill="#c8c4b4" stroke="none" /><path d="M 786 483 L 776 494 L 779 493 L 789 481 Z" fill="#c8c4b4" stroke="none" /><path d="M 767 477 L 767 478 L 763 482 L 761 485 L 760 487 L 762 486 L 763 486 L 764 483 L 766 480 L 768 479 L 770 475 Z" fill="#c8c4b4" stroke="none" /><path d="M 532 473 L 532 475 L 534 496 L 534 480 L 535 478 L 534 463 Z" fill="#c8c4b4" stroke="none" /><path d="M 783 461 L 783 462 L 781 464 L 784 463 L 790 455 Z" fill="#c8c4b4" stroke="none" /><path d="M 426 418 L 427 421 L 428 423 L 430 424 L 430 429 L 433 431 L 434 433 L 433 436 L 434 438 L 436 440 L 437 443 L 436 446 L 437 451 L 439 454 L 439 457 L 441 460 L 441 463 L 443 466 L 443 470 L 445 472 L 445 476 L 446 479 L 447 481 L 450 484 L 451 486 L 449 490 L 447 488 L 448 490 L 449 491 L 450 491 L 452 496 L 452 501 L 454 501 L 456 503 L 457 505 L 459 511 L 463 516 L 463 518 L 465 519 L 465 521 L 467 521 L 467 518 L 466 516 L 464 514 L 463 511 L 463 508 L 460 503 L 460 501 L 462 500 L 462 497 L 460 499 L 458 497 L 458 493 L 460 493 L 459 490 L 456 487 L 457 484 L 455 479 L 452 470 L 454 472 L 454 470 L 451 467 L 450 465 L 449 460 L 447 457 L 447 455 L 445 454 L 444 449 L 443 447 L 441 445 L 441 442 L 440 440 L 437 437 L 435 433 L 434 427 L 430 423 L 430 421 Z" fill="#c8c4b4" stroke="none" /><path d="M 449 464 L 451 466 L 451 468 L 451 471 L 449 469 L 448 467 Z" fill="none" stroke="none" /><path d="M 296 418 L 298 421 L 299 421 L 308 430 L 308 428 L 301 421 L 298 419 Z" fill="#c8c4b4" stroke="none" /><path d="M 671 407 L 669 410 L 668 412 L 668 415 L 665 419 L 662 427 L 662 431 L 655 437 L 653 439 L 650 444 L 649 446 L 649 448 L 648 449 L 648 451 L 649 449 L 651 445 L 652 441 L 655 437 L 656 440 L 654 443 L 653 449 L 650 453 L 649 457 L 648 459 L 642 465 L 641 467 L 640 472 L 640 477 L 639 480 L 637 484 L 634 488 L 633 490 L 632 493 L 631 496 L 631 501 L 628 505 L 628 507 L 629 508 L 629 510 L 627 518 L 629 520 L 626 528 L 624 530 L 624 533 L 623 535 L 625 532 L 626 530 L 626 528 L 628 526 L 629 521 L 634 513 L 634 510 L 637 507 L 639 502 L 640 499 L 641 493 L 644 487 L 644 484 L 645 481 L 646 479 L 649 477 L 651 474 L 653 470 L 654 466 L 656 464 L 658 459 L 660 449 L 664 442 L 666 435 L 664 431 L 666 428 L 667 425 L 669 423 L 670 417 L 668 415 L 669 413 L 670 410 L 671 409 Z" fill="#c8c4b4" stroke="none" /><path d="M 657 454 L 658 457 L 657 458 L 656 460 L 654 458 L 656 456 Z" fill="none" stroke="none" /><path d="M 851 400 L 848 403 L 848 404 L 845 407 L 844 407 L 840 412 L 838 414 L 837 415 L 834 416 L 831 418 L 827 422 L 826 422 L 823 425 L 820 430 L 819 431 L 814 434 L 813 437 L 812 438 L 811 439 L 809 440 L 808 441 L 806 444 L 804 446 L 800 448 L 798 450 L 798 452 L 791 458 L 785 466 L 783 468 L 778 469 L 780 466 L 777 467 L 776 470 L 778 471 L 776 473 L 776 474 L 768 482 L 767 485 L 764 488 L 760 491 L 757 492 L 754 494 L 752 496 L 752 497 L 749 500 L 747 504 L 744 508 L 741 510 L 740 513 L 738 513 L 732 518 L 731 520 L 731 522 L 721 533 L 717 533 L 719 530 L 717 532 L 717 537 L 709 545 L 709 548 L 708 548 L 705 551 L 704 557 L 700 558 L 700 561 L 695 566 L 704 559 L 705 558 L 706 555 L 708 553 L 712 550 L 720 542 L 720 540 L 723 537 L 732 529 L 739 523 L 743 521 L 743 518 L 746 520 L 748 521 L 751 519 L 751 518 L 754 515 L 755 515 L 756 513 L 754 514 L 753 515 L 753 516 L 752 517 L 749 519 L 748 517 L 754 511 L 754 509 L 755 507 L 757 505 L 757 509 L 763 507 L 761 509 L 766 504 L 763 500 L 765 498 L 768 497 L 768 494 L 770 492 L 773 493 L 778 488 L 787 478 L 787 476 L 791 475 L 790 477 L 793 474 L 791 472 L 793 470 L 795 470 L 806 460 L 809 457 L 810 453 L 812 454 L 815 451 L 815 449 L 818 445 L 824 438 L 827 436 L 828 435 L 833 429 L 835 425 L 833 424 L 836 421 L 838 422 L 839 419 L 840 417 L 845 410 L 847 408 L 850 408 L 850 403 L 851 402 Z" fill="#c8c4b4" stroke="none" /><path d="M 764 492 L 765 494 L 763 497 L 760 500 L 757 501 L 756 504 L 753 502 L 758 496 L 759 495 L 760 495 L 762 493 Z" fill="none" stroke="none" /><path d="M 774 481 L 775 486 L 772 489 L 768 488 L 769 486 Z" fill="none" stroke="none" /><path d="M 781 480 L 784 480 L 779 485 L 779 482 L 779 481 L 780 480 Z" fill="none" stroke="none" /><path d="M 786 470 L 787 472 L 782 477 L 779 476 L 780 474 L 782 472 L 784 471 Z" fill="none" stroke="none" /><path d="M 804 447 L 806 448 L 806 452 L 804 453 L 802 453 L 800 455 L 797 459 L 785 466 L 787 464 L 791 461 L 793 459 L 795 457 L 801 451 Z" fill="none" stroke="none" /><path d="M 819 431 L 821 433 L 819 435 L 816 434 Z" fill="none" stroke="none" /><path d="M 267 393 L 267 395 L 268 397 L 270 400 L 274 405 L 281 412 L 282 415 L 283 417 L 284 418 L 289 422 L 289 424 L 290 426 L 297 433 L 298 437 L 300 436 L 303 440 L 303 441 L 306 444 L 306 446 L 309 449 L 310 449 L 312 451 L 314 454 L 313 456 L 318 461 L 321 462 L 322 465 L 325 470 L 331 477 L 331 480 L 335 484 L 336 486 L 338 489 L 341 492 L 343 492 L 345 494 L 346 500 L 348 500 L 351 503 L 354 508 L 357 514 L 350 507 L 354 513 L 355 514 L 360 518 L 362 521 L 365 520 L 365 523 L 366 528 L 368 530 L 368 531 L 369 532 L 374 537 L 376 539 L 379 540 L 382 543 L 383 541 L 388 544 L 385 541 L 380 534 L 380 530 L 386 536 L 388 539 L 391 546 L 393 549 L 397 552 L 399 554 L 397 550 L 395 548 L 394 548 L 393 547 L 390 542 L 387 536 L 385 533 L 383 530 L 378 528 L 376 525 L 378 525 L 376 523 L 379 522 L 382 522 L 380 519 L 377 521 L 375 519 L 374 516 L 377 514 L 375 512 L 374 512 L 374 509 L 372 508 L 372 507 L 369 505 L 370 509 L 368 509 L 366 507 L 366 505 L 364 503 L 367 500 L 362 494 L 358 489 L 358 488 L 355 486 L 358 491 L 364 497 L 360 498 L 353 491 L 349 483 L 349 481 L 351 479 L 347 475 L 347 473 L 345 471 L 339 465 L 339 462 L 337 462 L 335 460 L 337 463 L 337 464 L 340 467 L 339 470 L 336 467 L 333 463 L 331 459 L 333 458 L 331 458 L 330 456 L 326 455 L 328 453 L 328 451 L 330 450 L 328 447 L 327 447 L 326 444 L 322 441 L 327 447 L 328 449 L 326 450 L 323 447 L 319 442 L 320 441 L 317 437 L 315 436 L 312 432 L 312 435 L 315 438 L 312 439 L 310 438 L 309 437 L 309 436 L 305 430 L 299 424 L 293 419 L 292 419 L 288 415 L 282 409 L 279 406 L 278 404 L 280 403 L 283 406 L 279 402 L 276 401 Z" fill="#c8c4b4" stroke="none" /><path d="M 346 475 L 349 478 L 348 481 L 344 477 Z" fill="none" stroke="none" /><path d="M 341 469 L 344 472 L 344 475 L 342 475 L 340 473 L 339 471 Z" fill="none" stroke="none" /><path d="M 314 442 L 318 446 L 318 448 L 319 450 L 320 451 L 324 454 L 327 460 L 329 463 L 331 466 L 332 467 L 333 467 L 334 468 L 335 471 L 338 473 L 338 475 L 340 477 L 341 477 L 343 479 L 345 482 L 346 484 L 347 488 L 348 490 L 350 493 L 354 498 L 356 500 L 358 500 L 360 502 L 363 508 L 368 513 L 371 514 L 371 517 L 372 520 L 373 523 L 375 526 L 375 528 L 375 531 L 371 527 L 370 523 L 368 520 L 361 513 L 357 505 L 355 502 L 350 497 L 346 490 L 340 485 L 339 483 L 338 479 L 336 477 L 335 477 L 334 476 L 333 474 L 332 471 L 328 467 L 326 463 L 317 454 L 317 451 L 311 444 Z" fill="none" stroke="none" /><path d="M 286 417 L 288 416 L 290 419 L 294 422 L 292 423 L 290 422 L 288 420 L 288 419 Z" fill="none" stroke="none" /><path d="M 258 382 L 260 385 L 260 386 L 263 390 L 266 391 Z" fill="#c8c4b4" stroke="none" /><path d="M 540 302 L 541 305 L 540 306 L 541 309 L 539 312 L 540 315 L 539 316 L 539 319 L 541 322 L 541 327 L 538 330 L 538 332 L 540 333 L 540 336 L 539 342 L 537 345 L 537 349 L 538 350 L 538 354 L 536 358 L 537 360 L 537 368 L 535 371 L 537 374 L 536 386 L 534 393 L 536 395 L 536 397 L 535 399 L 536 403 L 535 404 L 535 408 L 537 410 L 537 412 L 535 416 L 537 419 L 536 425 L 536 427 L 536 431 L 536 439 L 538 445 L 536 447 L 535 445 L 534 444 L 533 440 L 534 431 L 534 424 L 532 424 L 533 434 L 532 437 L 532 442 L 533 444 L 534 446 L 536 447 L 537 451 L 536 454 L 534 455 L 534 457 L 534 460 L 534 457 L 536 457 L 538 460 L 536 462 L 538 465 L 537 467 L 537 472 L 538 478 L 540 481 L 538 483 L 537 485 L 539 486 L 540 489 L 540 492 L 540 494 L 539 495 L 539 498 L 541 500 L 542 503 L 543 501 L 542 493 L 544 485 L 545 471 L 545 457 L 545 453 L 548 451 L 546 447 L 546 444 L 547 439 L 546 433 L 548 432 L 549 429 L 547 428 L 548 421 L 547 416 L 549 407 L 547 405 L 547 392 L 543 391 L 544 387 L 544 385 L 546 375 L 547 387 L 547 373 L 543 373 L 543 371 L 546 369 L 547 367 L 546 365 L 544 363 L 544 361 L 545 359 L 544 352 L 545 348 L 545 345 L 543 343 L 543 341 L 542 339 L 543 335 L 544 334 L 544 332 L 541 328 L 543 326 L 543 323 L 544 322 L 544 320 L 542 318 L 541 316 L 543 313 L 543 298 L 543 296 L 542 290 Z" fill="#c8c4b4" stroke="none" /><path d="M 541 435 L 542 437 L 543 438 L 543 445 L 542 446 L 541 448 Z" fill="none" stroke="none" /><path d="M 545 427 L 547 428 L 548 430 L 546 432 L 543 431 L 543 429 Z" fill="none" stroke="none" /><path d="M 547 411 L 547 420 L 546 425 L 544 427 L 543 423 Z" fill="none" stroke="none" /><path d="M 544 404 L 547 405 L 546 409 L 543 408 Z" fill="none" stroke="none" /></svg>